<?xml version="1.0" encoding="UTF-8" standalone="no"?>
<svg
   xmlns:dc="http://purl.org/dc/elements/1.1/"
   xmlns:cc="http://creativecommons.org/ns#"
   xmlns:rdf="http://www.w3.org/1999/02/22-rdf-syntax-ns#"
   xmlns:svg="http://www.w3.org/2000/svg"
   xmlns="http://www.w3.org/2000/svg"
   viewBox="0 0 1461.3333 1040"
   height="1040"
   width="1461.3333"
   xml:space="preserve"
   id="svg2"
   version="1.1"><metadata
     id="metadata8"><rdf:RDF><cc:Work
         rdf:about=""><dc:format>image/svg+xml</dc:format><dc:type
           rdf:resource="http://purl.org/dc/dcmitype/StillImage" /></cc:Work></rdf:RDF></metadata><defs
     id="defs6" /><g
     transform="matrix(1.3333333,0,0,-1.3333333,0,1040)"
     id="g10"><g
       transform="scale(0.1)"
       id="g12"><path
         id="path14"
         style="fill:#393536;fill-opacity:1;fill-rule:nonzero;stroke:none"
         d="m 2161.26,6777.59 c 0,0 2.35,5.14 6.76,14.78 4.69,9.58 10.18,23.9 19.86,41.6 4.67,8.93 9.84,18.82 15.47,29.57 6.2,10.39 12.91,21.63 20.07,33.63 14.88,23.7 32.55,50.05 53.83,77.46 10.6,13.72 22.49,27.35 34.49,41.8 12.87,13.59 25.45,28.52 39.89,42.36 7.15,7.01 14.4,14.12 21.74,21.32 7.52,7.02 15.47,13.73 23.35,20.74 15.55,14.3 32.92,27.07 50.02,40.94 35.31,26.13 73.29,51.55 114.19,73.64 40.98,21.84 84.17,41.39 128.68,57.98 44.69,16.01 90.34,29.9 136.28,40.93 45.98,10.62 92.36,17.24 137.52,18.89 45.15,0.49 88.9,-2.61 129.5,-10.57 10.21,-1.52 20.17,-3.66 29.92,-6.09 9.73,-2.3 19.32,-4.57 28.75,-6.8 18.57,-5.78 36.57,-10.65 53.37,-16.95 33.73,-12.15 63.46,-25.98 88.93,-39.59 12.65,-7.03 24.29,-13.88 34.97,-20.19 10.43,-6.94 19.9,-13.34 28.3,-19.32 8.51,-5.74 15.77,-11.46 21.92,-16.67 6.23,-5.06 11.47,-9.37 15.6,-13.07 8.35,-7.2 12.62,-11.25 12.62,-11.25 l -5.55,-10.71 c 0,0 -5.87,0.88 -16.52,2.94 -10.8,1.71 -25.77,5.86 -45.44,8.97 -9.61,1.88 -20.25,3.95 -31.84,6.21 -11.63,1.88 -24.13,3.9 -37.26,6.33 -26.49,4.25 -56.13,8.38 -88.14,12.14 -15.98,1.51 -32.62,3.08 -49.85,4.71 -17.25,0.86 -34.87,2.54 -53.07,2.99 -36.33,1.66 -74.4,1.14 -113.74,1.29 -39.34,-0.87 -80.13,-1.43 -121.83,-4.77 -41.58,-3.83 -83.8,-10.74 -125.26,-21.39 -41.26,-11.29 -81.87,-25.39 -120.96,-41.85 -38.81,-17.04 -76.19,-36 -111.38,-56.51 -34.62,-21.31 -67.44,-43.46 -96.83,-66.91 -15.12,-11.25 -28.5,-23.74 -42.26,-35.03 -12.89,-12.16 -25.75,-23.66 -37.38,-35.39 -23.26,-23.48 -43.76,-46.04 -61.04,-66.88 -8.45,-10.6 -16.36,-20.51 -23.67,-29.69 -6.9,-9.44 -13.24,-18.11 -18.96,-25.95 -11.78,-15.43 -19.62,-29.21 -25.61,-37.85 -5.79,-8.87 -8.87,-13.61 -8.87,-13.61 l -10.57,5.82" /><path
         id="path16"
         style="fill:#393536;fill-opacity:1;fill-rule:nonzero;stroke:none"
         d="m 3407.29,6100.5 c 0,0 -2.35,-5.14 -6.76,-14.77 -4.7,-9.58 -10.18,-23.91 -19.86,-41.61 -4.67,-8.92 -9.84,-18.81 -15.48,-29.57 -6.2,-10.39 -12.9,-21.62 -20.06,-33.62 -14.89,-23.7 -32.55,-50.05 -53.83,-77.46 -10.61,-13.72 -22.49,-27.35 -34.49,-41.81 -12.87,-13.58 -25.45,-28.52 -39.89,-42.35 -7.15,-7.01 -14.4,-14.12 -21.74,-21.32 -7.52,-7.02 -15.47,-13.73 -23.35,-20.75 -15.55,-14.3 -32.92,-27.07 -50.02,-40.93 -35.31,-26.13 -73.29,-51.55 -114.19,-73.64 -40.98,-21.84 -84.17,-41.39 -128.68,-57.98 -44.69,-16.01 -90.35,-29.91 -136.28,-40.94 -45.98,-10.61 -92.37,-17.23 -137.52,-18.89 -45.15,-0.48 -88.9,2.62 -129.5,10.58 -10.21,1.51 -20.17,3.66 -29.92,6.09 -9.73,2.3 -19.32,4.57 -28.76,6.8 -18.56,5.77 -36.56,10.64 -53.36,16.95 -33.73,12.15 -63.47,25.98 -88.93,39.59 -12.66,7.03 -24.29,13.88 -34.97,20.19 -10.43,6.94 -19.9,13.34 -28.3,19.32 -8.52,5.74 -15.77,11.46 -21.92,16.66 -6.23,5.06 -11.47,9.38 -15.6,13.08 -8.35,7.19 -12.62,11.25 -12.62,11.25 l 5.55,10.7 c 0,0 5.87,-0.88 16.52,-2.93 10.8,-1.71 25.77,-5.87 45.44,-8.98 9.61,-1.87 20.25,-3.95 31.83,-6.2 11.64,-1.89 24.14,-3.9 37.27,-6.33 26.49,-4.26 56.12,-8.38 88.14,-12.14 15.98,-1.51 32.62,-3.08 49.85,-4.71 17.25,-0.86 34.87,-2.55 53.06,-2.99 36.33,-1.66 74.41,-1.14 113.75,-1.29 39.34,0.87 80.13,1.42 121.83,4.77 41.58,3.83 83.8,10.73 125.26,21.39 41.26,11.28 81.87,25.38 120.96,41.84 38.8,17.05 76.19,36.01 111.38,56.52 34.62,21.31 67.44,43.46 96.83,66.91 15.11,11.24 28.5,23.74 42.26,35.03 12.89,12.16 25.74,23.65 37.37,35.39 23.27,23.48 43.77,46.03 61.04,66.87 8.46,10.6 16.37,20.52 23.68,29.69 6.9,9.44 13.23,18.12 18.96,25.95 11.78,15.44 19.62,29.21 25.6,37.86 5.79,8.87 8.88,13.6 8.88,13.6 l 10.57,-5.82" /><path
         id="path18"
         style="fill:#393536;fill-opacity:1;fill-rule:nonzero;stroke:none"
         d="m 2161.26,6777.59 c 0,0 2.35,5.14 6.76,14.78 4.69,9.58 10.18,23.9 19.86,41.6 4.67,8.93 9.84,18.82 15.47,29.57 6.2,10.39 12.91,21.63 20.07,33.63 14.88,23.7 32.55,50.05 53.83,77.46 10.6,13.72 22.49,27.35 34.49,41.8 12.87,13.59 25.45,28.52 39.89,42.36 7.15,7.01 14.4,14.12 21.74,21.32 7.52,7.02 15.47,13.73 23.35,20.74 15.55,14.3 32.92,27.07 50.02,40.94 35.31,26.13 73.29,51.55 114.19,73.64 40.98,21.84 84.17,41.39 128.68,57.98 44.69,16.01 90.34,29.9 136.28,40.93 45.98,10.62 92.36,17.24 137.52,18.89 45.15,0.49 88.9,-2.61 129.5,-10.57 10.21,-1.52 20.17,-3.66 29.92,-6.09 9.73,-2.3 19.32,-4.57 28.75,-6.8 18.57,-5.78 36.57,-10.65 53.37,-16.95 33.73,-12.15 63.46,-25.98 88.93,-39.59 12.65,-7.03 24.29,-13.88 34.97,-20.19 10.43,-6.94 19.9,-13.34 28.3,-19.32 8.51,-5.74 15.77,-11.46 21.92,-16.67 6.23,-5.06 11.47,-9.37 15.6,-13.07 8.35,-7.2 12.62,-11.25 12.62,-11.25 l -5.55,-10.71 c 0,0 -5.87,0.88 -16.52,2.94 -10.8,1.71 -25.77,5.86 -45.44,8.97 -9.61,1.88 -20.25,3.95 -31.84,6.21 -11.63,1.88 -24.13,3.9 -37.26,6.33 -26.49,4.25 -56.13,8.38 -88.14,12.14 -15.98,1.51 -32.62,3.08 -49.85,4.71 -17.25,0.86 -34.87,2.54 -53.07,2.99 -36.33,1.66 -74.4,1.14 -113.74,1.29 -39.34,-0.87 -80.13,-1.43 -121.83,-4.77 -41.58,-3.83 -83.8,-10.74 -125.26,-21.39 -41.26,-11.29 -81.87,-25.39 -120.96,-41.85 -38.81,-17.04 -76.19,-36 -111.38,-56.51 -34.62,-21.31 -67.44,-43.46 -96.83,-66.91 -15.12,-11.25 -28.5,-23.74 -42.26,-35.03 -12.89,-12.16 -25.75,-23.66 -37.38,-35.39 -23.26,-23.48 -43.76,-46.04 -61.04,-66.88 -8.45,-10.6 -16.36,-20.51 -23.67,-29.69 -6.9,-9.44 -13.24,-18.11 -18.96,-25.95 -11.78,-15.43 -19.62,-29.21 -25.61,-37.85 -5.79,-8.87 -8.87,-13.61 -8.87,-13.61 l -10.57,5.82" /><path
         id="path20"
         style="fill:#393536;fill-opacity:1;fill-rule:nonzero;stroke:none"
         d="m 3407.29,6100.5 c 0,0 -2.35,-5.14 -6.76,-14.77 -4.7,-9.58 -10.18,-23.91 -19.86,-41.61 -4.67,-8.92 -9.84,-18.81 -15.48,-29.57 -6.2,-10.39 -12.9,-21.62 -20.06,-33.62 -14.89,-23.7 -32.55,-50.05 -53.83,-77.46 -10.61,-13.72 -22.49,-27.35 -34.49,-41.81 -12.87,-13.58 -25.45,-28.52 -39.89,-42.35 -7.15,-7.01 -14.4,-14.12 -21.74,-21.32 -7.52,-7.02 -15.47,-13.73 -23.35,-20.75 -15.55,-14.3 -32.92,-27.07 -50.02,-40.93 -35.31,-26.13 -73.29,-51.55 -114.19,-73.64 -40.98,-21.84 -84.17,-41.39 -128.68,-57.98 -44.69,-16.01 -90.35,-29.91 -136.28,-40.94 -45.98,-10.61 -92.37,-17.23 -137.52,-18.89 -45.15,-0.48 -88.9,2.62 -129.5,10.58 -10.21,1.51 -20.17,3.66 -29.92,6.09 -9.73,2.3 -19.32,4.57 -28.76,6.8 -18.56,5.77 -36.56,10.64 -53.36,16.95 -33.73,12.15 -63.47,25.98 -88.93,39.59 -12.66,7.03 -24.29,13.88 -34.97,20.19 -10.43,6.94 -19.9,13.34 -28.3,19.32 -8.52,5.74 -15.77,11.46 -21.92,16.66 -6.23,5.06 -11.47,9.38 -15.6,13.08 -8.35,7.19 -12.62,11.25 -12.62,11.25 l 5.55,10.7 c 0,0 5.87,-0.88 16.52,-2.93 10.8,-1.71 25.77,-5.87 45.44,-8.98 9.61,-1.87 20.25,-3.95 31.83,-6.2 11.64,-1.89 24.14,-3.9 37.27,-6.33 26.49,-4.26 56.12,-8.38 88.14,-12.14 15.98,-1.51 32.62,-3.08 49.85,-4.71 17.25,-0.86 34.87,-2.55 53.06,-2.99 36.33,-1.66 74.41,-1.14 113.75,-1.29 39.34,0.87 80.13,1.42 121.83,4.77 41.58,3.83 83.8,10.73 125.26,21.39 41.26,11.28 81.87,25.38 120.96,41.84 38.8,17.05 76.19,36.01 111.38,56.52 34.62,21.31 67.44,43.46 96.83,66.91 15.11,11.24 28.5,23.74 42.26,35.03 12.89,12.16 25.74,23.65 37.37,35.39 23.27,23.48 43.77,46.03 61.04,66.87 8.46,10.6 16.37,20.52 23.68,29.69 6.9,9.44 13.23,18.12 18.96,25.95 11.78,15.44 19.62,29.21 25.6,37.86 5.79,8.87 8.88,13.6 8.88,13.6 l 10.57,-5.82" /><path
         id="path22"
         style="fill:#393536;fill-opacity:1;fill-rule:nonzero;stroke:none"
         d="m 2104.35,6237.9 c 0,0 -1.97,5.3 -5.67,15.22 -3.45,10.1 -9.71,24.11 -15.38,43.46 -3.01,9.62 -6.34,20.27 -9.96,31.86 -2.96,11.73 -6.17,24.41 -9.59,37.97 -6.23,27.28 -12.37,58.4 -16.71,92.83 -2.2,17.2 -3.44,35.24 -5.17,53.95 -0.51,18.7 -2.17,38.16 -1.74,58.15 0.09,10.02 0.19,20.17 0.29,30.45 0.35,10.28 1.23,20.65 1.84,31.18 0.89,21.11 4.14,42.42 6.43,64.31 6.49,43.45 15.37,88.28 28.67,132.82 13.54,44.42 30.25,88.79 50,131.99 20.27,42.92 42.73,85.03 67.41,125.31 25.01,40.02 53.13,77.5 83.89,110.6 31.58,32.27 64.71,61.02 99.05,84.09 8.28,6.15 16.85,11.68 25.45,16.85 8.52,5.26 16.9,10.44 25.15,15.52 17.21,9.05 33.38,18.34 49.72,25.76 32.44,15.26 63.25,26.5 90.88,34.89 13.92,3.97 26.99,7.36 39,10.44 12.28,2.47 23.51,4.65 33.68,6.36 10.07,1.96 19.25,3.04 27.28,3.72 7.98,0.82 14.74,1.47 20.27,1.78 11,0.82 16.88,0.97 16.88,0.97 l 3.65,-11.5 c 0,0 -4.78,-3.52 -13.76,-9.6 -8.84,-6.43 -22.37,-14.08 -38.48,-25.79 -8.12,-5.47 -17.11,-11.53 -26.9,-18.12 -9.56,-6.9 -19.82,-14.32 -30.82,-21.88 -21.74,-15.72 -45.61,-33.76 -70.91,-53.74 -12.37,-10.23 -25.25,-20.89 -38.58,-31.92 -12.8,-11.59 -26.46,-22.85 -39.64,-35.4 -26.86,-24.52 -53.41,-51.81 -81.34,-79.52 -27.2,-28.43 -55.65,-57.67 -82.77,-89.52 -26.7,-32.11 -51.67,-66.84 -73.45,-103.7 -21.2,-37.15 -39.94,-75.84 -55.94,-115.12 -15.39,-39.49 -28.41,-79.33 -38.8,-118.72 -9.41,-39.55 -16.95,-78.41 -21.15,-115.78 -2.74,-18.64 -3.37,-36.94 -5.12,-54.65 -0.51,-17.72 -1.48,-34.93 -1.4,-51.45 0.15,-33.06 1.6,-63.5 4.13,-90.45 1.51,-13.48 2.93,-26.08 4.24,-37.74 1.8,-11.55 3.46,-22.17 4.95,-31.75 2.58,-19.25 6.78,-34.53 8.66,-44.88 2.18,-10.37 3.34,-15.9 3.34,-15.9 l -11.58,-3.35" /><path
         id="path24"
         style="fill:#393536;fill-opacity:1;fill-rule:nonzero;stroke:none"
         d="m 3464.2,6640.2 c 0,0 1.97,-5.3 5.67,-15.23 3.45,-10.09 9.7,-24.1 15.38,-43.46 3,-9.62 6.33,-20.26 9.96,-31.85 2.96,-11.73 6.17,-24.42 9.59,-37.97 6.23,-27.28 12.37,-58.4 16.71,-92.83 2.2,-17.2 3.44,-35.24 5.17,-53.95 0.5,-18.71 2.17,-38.17 1.74,-58.16 -0.1,-10.01 -0.2,-20.17 -0.3,-30.45 -0.34,-10.27 -1.22,-20.64 -1.84,-31.17 -0.88,-21.11 -4.13,-42.42 -6.42,-64.32 -6.49,-43.44 -15.37,-88.27 -28.67,-132.81 -13.54,-44.43 -30.25,-88.79 -50,-132 -20.28,-42.92 -42.73,-85.02 -67.41,-125.3 -25.01,-40.03 -53.13,-77.5 -83.89,-110.6 -31.58,-32.27 -64.71,-61.02 -99.05,-84.1 -8.28,-6.15 -16.85,-11.67 -25.46,-16.84 -8.51,-5.26 -16.89,-10.44 -25.14,-15.53 -17.21,-9.05 -33.39,-18.33 -49.72,-25.75 -32.44,-15.26 -63.25,-26.5 -90.88,-34.89 -13.92,-3.98 -26.99,-7.36 -39,-10.45 -12.28,-2.47 -23.51,-4.64 -33.68,-6.35 -10.07,-1.96 -19.25,-3.04 -27.28,-3.72 -7.98,-0.82 -14.74,-1.48 -20.28,-1.78 -10.99,-0.82 -16.87,-0.97 -16.87,-0.97 l -3.65,11.5 c 0,0 4.77,3.52 13.75,9.6 8.85,6.42 22.38,14.07 38.48,25.78 8.12,5.47 17.12,11.53 26.9,18.13 9.57,6.89 19.83,14.31 30.83,21.87 21.74,15.73 45.61,33.76 70.91,53.74 12.36,10.23 25.25,20.89 38.58,31.92 12.8,11.59 26.46,22.86 39.64,35.41 26.86,24.52 53.41,51.81 81.34,79.52 27.2,28.43 55.65,57.67 82.77,89.52 26.7,32.11 51.67,66.84 73.45,103.7 21.2,37.15 39.94,75.83 55.94,115.11 15.39,39.5 28.41,79.34 38.8,118.73 9.41,39.55 16.95,78.41 21.15,115.78 2.74,18.64 3.37,36.93 5.11,54.65 0.52,17.71 1.49,34.93 1.41,51.45 -0.15,33.06 -1.61,63.5 -4.13,90.45 -1.51,13.47 -2.93,26.08 -4.25,37.74 -1.8,11.55 -3.45,22.16 -4.95,31.75 -2.58,19.24 -6.77,34.53 -8.65,44.87 -2.18,10.37 -3.35,15.9 -3.35,15.9 l 11.59,3.36" /><path
         id="path26"
         style="fill:#393536;fill-opacity:1;fill-rule:nonzero;stroke:none"
         d="m 2445.73,5816.03 c 0,0 -5.14,2.35 -14.78,6.76 -9.58,4.7 -23.9,10.18 -41.6,19.86 -8.93,4.67 -18.81,9.85 -29.57,15.48 -10.39,6.2 -21.62,12.9 -33.63,20.06 -23.7,14.89 -50.05,32.55 -77.45,53.84 -13.73,10.6 -27.36,22.48 -41.81,34.48 -13.58,12.87 -28.52,25.46 -42.35,39.89 -7.02,7.16 -14.13,14.41 -21.33,21.75 -7.02,7.51 -13.73,15.46 -20.74,23.34 -14.3,15.56 -27.07,32.92 -40.93,50.02 -26.14,35.31 -51.55,73.29 -73.65,114.19 -21.84,40.99 -41.39,84.17 -57.97,128.69 -16.01,44.68 -29.91,90.34 -40.94,136.27 -10.62,45.99 -17.24,92.37 -18.89,137.52 -0.49,45.15 2.61,88.9 10.58,129.51 1.5,10.2 3.66,20.16 6.08,29.91 2.31,9.74 4.58,19.33 6.81,28.76 5.77,18.56 10.64,36.57 16.94,53.36 12.15,33.73 25.99,63.47 39.59,88.93 7.03,12.66 13.89,24.3 20.2,34.98 6.93,10.42 13.33,19.89 19.31,28.3 5.74,8.51 11.46,15.76 16.67,21.92 5.06,6.22 9.38,11.46 13.08,15.59 7.19,8.36 11.24,12.62 11.24,12.62 l 10.71,-5.55 c 0,0 -0.88,-5.87 -2.93,-16.51 -1.72,-10.8 -5.87,-25.78 -8.98,-45.45 -1.87,-9.6 -3.95,-20.25 -6.21,-31.83 -1.88,-11.64 -3.89,-24.14 -6.33,-37.27 -4.25,-26.49 -8.38,-56.12 -12.13,-88.14 -1.51,-15.97 -3.09,-32.62 -4.71,-49.85 -0.86,-17.25 -2.55,-34.87 -3,-53.06 -1.66,-36.33 -1.13,-74.4 -1.29,-113.75 0.87,-39.34 1.43,-80.13 4.77,-121.83 3.83,-41.58 10.74,-83.79 21.39,-125.26 11.29,-41.26 25.39,-81.87 41.85,-120.96 17.04,-38.8 36.01,-76.19 56.52,-111.38 21.31,-34.62 43.46,-67.43 66.91,-96.83 11.24,-15.11 23.73,-28.5 35.03,-42.26 12.16,-12.89 23.65,-25.74 35.39,-37.37 23.48,-23.27 46.03,-43.77 66.87,-61.04 10.6,-8.45 20.52,-16.37 29.69,-23.68 9.44,-6.9 18.11,-13.23 25.95,-18.95 15.43,-11.79 29.21,-19.63 37.85,-25.61 8.87,-5.79 13.61,-8.88 13.61,-8.88 l -5.82,-10.57" /><path
         id="path28"
         style="fill:#393536;fill-opacity:1;fill-rule:nonzero;stroke:none"
         d="m 3122.82,7062.06 c 0,0 5.14,-2.35 14.78,-6.76 9.57,-4.69 23.9,-10.17 41.6,-19.85 8.93,-4.68 18.81,-9.85 29.57,-15.48 10.39,-6.2 21.62,-12.9 33.63,-20.07 23.69,-14.88 50.04,-32.55 77.45,-53.83 13.73,-10.6 27.36,-22.48 41.81,-34.49 13.58,-12.87 28.52,-25.45 42.35,-39.88 7.02,-7.16 14.13,-14.41 21.33,-21.75 7.02,-7.51 13.73,-15.47 20.74,-23.34 14.3,-15.56 27.07,-32.92 40.93,-50.03 26.13,-35.3 51.55,-73.29 73.64,-114.18 21.85,-40.99 41.4,-84.17 57.98,-128.69 16.01,-44.69 29.91,-90.34 40.94,-136.27 10.61,-45.99 17.23,-92.37 18.89,-137.53 0.48,-45.15 -2.61,-88.9 -10.58,-129.5 -1.51,-10.2 -3.66,-20.17 -6.08,-29.91 -2.31,-9.74 -4.58,-19.33 -6.81,-28.76 -5.77,-18.57 -10.64,-36.57 -16.94,-53.37 -12.15,-33.72 -25.99,-63.46 -39.6,-88.93 -7.03,-12.65 -13.88,-24.29 -20.19,-34.97 -6.93,-10.43 -13.34,-19.9 -19.32,-28.3 -5.74,-8.51 -11.46,-15.76 -16.66,-21.92 -5.06,-6.23 -9.38,-11.47 -13.08,-15.6 -7.19,-8.35 -11.24,-12.62 -11.24,-12.62 l -10.71,5.55 c 0,0 0.88,5.87 2.93,16.52 1.72,10.8 5.87,25.77 8.98,45.44 1.87,9.61 3.95,20.25 6.21,31.84 1.88,11.64 3.89,24.13 6.33,37.27 4.25,26.48 8.37,56.12 12.13,88.13 1.51,15.98 3.08,32.63 4.71,49.85 0.86,17.25 2.55,34.88 3,53.07 1.65,36.33 1.13,74.4 1.29,113.75 -0.87,39.33 -1.43,80.13 -4.78,121.83 -3.82,41.58 -10.73,83.79 -21.39,125.26 -11.28,41.25 -25.38,81.86 -41.84,120.95 -17.04,38.81 -36.01,76.19 -56.52,111.38 -21.31,34.62 -43.46,67.44 -66.91,96.83 -11.24,15.12 -23.73,28.5 -35.03,42.26 -12.16,12.89 -23.65,25.75 -35.39,37.38 -23.48,23.27 -46.03,43.76 -66.87,61.04 -10.6,8.45 -20.52,16.36 -29.69,23.68 -9.44,6.89 -18.12,13.23 -25.95,18.95 -15.43,11.78 -29.21,19.62 -37.85,25.61 -8.88,5.79 -13.61,8.88 -13.61,8.88 l 5.82,10.56" /><path
         id="path30"
         style="fill:#393536;fill-opacity:1;fill-rule:nonzero;stroke:none"
         d="m 2985.42,5759.12 c 0,0 -5.29,-1.97 -15.22,-5.67 -10.1,-3.45 -24.1,-9.7 -43.46,-15.37 -9.62,-3.01 -20.27,-6.34 -31.86,-9.97 -11.73,-2.96 -24.41,-6.16 -37.96,-9.59 -27.28,-6.23 -58.41,-12.37 -92.84,-16.7 -17.2,-2.21 -35.24,-3.44 -53.95,-5.18 -18.7,-0.5 -38.16,-2.17 -58.15,-1.74 -10.02,0.1 -20.17,0.2 -30.45,0.3 -10.28,0.35 -20.65,1.22 -31.18,1.84 -21.11,0.88 -42.42,4.13 -64.31,6.42 -43.45,6.49 -88.28,15.38 -132.82,28.67 -44.42,13.54 -88.78,30.25 -131.99,50 -42.92,20.28 -85.03,42.74 -125.31,67.41 -40.02,25.02 -77.5,53.13 -110.6,83.89 -32.27,31.59 -61.01,64.71 -84.09,99.05 -6.15,8.29 -11.67,16.85 -16.85,25.46 -5.25,8.51 -10.43,16.9 -15.52,25.14 -9.05,17.21 -18.33,33.39 -25.76,49.72 -15.25,32.44 -26.5,63.25 -34.88,90.88 -3.98,13.92 -7.36,26.99 -10.45,39.01 -2.47,12.28 -4.64,23.5 -6.36,33.67 -1.96,10.08 -3.04,19.25 -3.71,27.28 -0.82,7.98 -1.48,14.74 -1.78,20.28 -0.82,10.99 -0.97,16.87 -0.97,16.87 l 11.49,3.65 c 0,0 3.53,-4.77 9.61,-13.75 6.42,-8.85 14.07,-22.38 25.78,-38.48 5.47,-8.12 11.53,-17.11 18.12,-26.9 6.9,-9.56 14.32,-19.82 21.88,-30.83 15.72,-21.74 33.76,-45.61 53.74,-70.9 10.23,-12.37 20.89,-25.25 31.92,-38.58 11.59,-12.81 22.86,-26.46 35.4,-39.64 24.52,-26.87 51.81,-53.42 79.52,-81.35 28.44,-27.2 57.67,-55.65 89.52,-82.77 32.11,-26.7 66.85,-51.66 103.7,-73.45 37.16,-21.19 75.84,-39.94 115.12,-55.94 39.49,-15.39 79.33,-28.41 118.72,-38.79 39.55,-9.41 78.42,-16.96 115.78,-21.16 18.64,-2.74 36.94,-3.37 54.65,-5.11 17.72,-0.52 34.93,-1.48 51.46,-1.4 33.05,0.15 63.5,1.6 90.45,4.12 13.47,1.52 26.08,2.93 37.73,4.25 11.56,1.8 22.17,3.45 31.75,4.95 19.25,2.58 34.53,6.78 44.88,8.66 10.37,2.18 15.9,3.34 15.9,3.34 l 3.35,-11.59" /><path
         id="path32"
         style="fill:#393536;fill-opacity:1;fill-rule:nonzero;stroke:none"
         d="m 2583.13,7118.97 c 0,0 5.29,1.98 15.22,5.67 10.1,3.46 24.1,9.71 43.46,15.38 9.62,3.01 20.26,6.34 31.86,9.96 11.72,2.97 24.41,6.17 37.96,9.59 27.28,6.23 58.41,12.38 92.84,16.71 17.2,2.2 35.24,3.44 53.94,5.17 18.71,0.51 38.17,2.17 58.16,1.75 10.02,-0.1 20.17,-0.2 30.45,-0.3 10.28,-0.35 20.65,-1.23 31.18,-1.84 21.11,-0.89 42.41,-4.14 64.31,-6.43 43.45,-6.49 88.28,-15.37 132.82,-28.67 44.42,-13.53 88.78,-30.25 131.99,-50 42.92,-20.27 85.03,-42.73 125.31,-67.41 40.02,-25.01 77.5,-53.12 110.6,-83.89 32.27,-31.58 61.01,-64.71 84.09,-99.05 6.15,-8.28 11.67,-16.84 16.85,-25.45 5.25,-8.52 10.43,-16.9 15.52,-25.15 9.05,-17.21 18.33,-33.38 25.75,-49.72 15.26,-32.44 26.51,-63.25 34.89,-90.87 3.98,-13.93 7.36,-27 10.45,-39.01 2.47,-12.28 4.64,-23.51 6.36,-33.67 1.96,-10.08 3.04,-19.25 3.71,-27.29 0.82,-7.98 1.48,-14.73 1.78,-20.27 0.82,-11 0.97,-16.88 0.97,-16.88 l -11.49,-3.64 c 0,0 -3.53,4.77 -9.61,13.75 -6.42,8.85 -14.07,22.37 -25.78,38.48 -5.47,8.12 -11.53,17.11 -18.12,26.9 -6.9,9.56 -14.32,19.82 -21.88,30.83 -15.72,21.73 -33.76,45.61 -53.74,70.9 -10.23,12.37 -20.89,25.25 -31.92,38.58 -11.59,12.8 -22.86,26.46 -35.41,39.64 -24.51,26.86 -51.8,53.41 -79.52,81.34 -28.43,27.21 -57.66,55.65 -89.52,82.78 -32.1,26.69 -66.84,51.66 -103.69,73.44 -37.16,21.2 -75.84,39.94 -115.12,55.95 -39.49,15.38 -79.34,28.41 -118.72,38.79 -39.55,9.41 -78.42,16.95 -115.78,21.16 -18.64,2.73 -36.94,3.36 -54.66,5.11 -17.71,0.51 -34.92,1.48 -51.45,1.4 -33.06,-0.15 -63.5,-1.6 -90.45,-4.12 -13.47,-1.52 -26.08,-2.94 -37.73,-4.25 -11.56,-1.8 -22.17,-3.46 -31.76,-4.95 -19.24,-2.58 -34.52,-6.78 -44.87,-8.66 -10.37,-2.18 -15.9,-3.34 -15.9,-3.34 l -3.35,11.58" /><path
         id="path34"
         style="fill:#393536;fill-opacity:1;fill-rule:nonzero;stroke:none"
         d="m 1862.19,3900.14 c 0,0 -0.12,10.58 -0.35,30.41 -0.34,9.87 0.06,22.19 0.73,36.77 0.32,7.28 0.67,15.11 1.03,23.46 0.75,8.3 1.54,17.11 2.38,26.43 0.74,9.34 1.74,19.16 3.36,29.38 1.52,10.23 2.81,21.02 4.72,32.17 2.2,11.1 4.49,22.65 6.87,34.63 2.46,11.98 5.9,24.18 8.98,36.92 13.42,50.63 33.24,106.81 62.01,165.03 28.62,58.26 67.13,117.91 115.02,175.5 24.21,28.53 50.54,56.82 79.98,83.11 14.31,13.61 29.95,26.02 45.45,38.94 7.86,6.32 16.1,12.23 24.21,18.4 8.08,6.23 16.37,12.24 24.97,17.88 67.62,46.86 144.6,85.82 227.43,112.64 41.34,13.69 84.25,23.54 127.7,31.34 21.82,3.31 43.71,6.75 65.82,8.46 11.04,1.11 22.08,2.25 33.18,2.55 l 34.4,1.52 c 21.47,-0.23 41.37,0.64 64.88,-1.04 23.04,-0.81 45.05,-3.21 67.17,-5.35 44.08,-5.6 87.97,-13.22 130.61,-24.83 85.4,-22.6 166.39,-58.15 237.41,-104.14 35.23,-23.33 68.89,-47.99 98.76,-75.64 15.36,-13.33 29.48,-27.65 43.55,-41.64 7.18,-6.84 13.38,-14.58 20.03,-21.75 6.45,-7.37 13.22,-14.35 19.17,-21.98 49.37,-59.41 88.28,-121.54 116.24,-182.24 28.22,-60.6 46.42,-119.11 57.51,-171.57 2.47,-13.21 5.3,-25.83 7.17,-38.2 1.77,-12.34 3.47,-24.23 5.11,-35.66 1.31,-11.46 1.87,-22.55 2.76,-33.04 0.97,-10.48 1.35,-20.51 1.49,-30.05 0.2,-9.49 0.38,-18.47 0.55,-26.92 -0.3,-8.44 -0.59,-16.36 -0.86,-23.73 -0.48,-14.69 -1.08,-27.11 -2.45,-37.18 -2.26,-20.04 -3.46,-30.72 -3.46,-30.72 h -11.12 c 0,0 -1.74,10.45 -5,30.04 -1.42,9.75 -3.72,21.71 -6.57,35.66 -1.42,6.96 -2.94,14.43 -4.56,22.4 -1.9,7.89 -3.92,16.28 -6.06,25.14 -8.84,35.22 -20.75,77.49 -39.32,123.69 -18.38,46.22 -42.46,96.62 -73.93,147.97 -31.43,51.37 -71.16,103.04 -118.05,152.47 -23.89,24.3 -48.97,48.68 -76.65,71.18 -13.5,11.65 -28.18,22.11 -42.37,33.44 -7.24,5.48 -14.85,10.55 -22.29,15.88 -7.42,5.4 -15.03,10.57 -22.93,15.38 -61.55,40.93 -130.28,75.8 -204.19,101.43 -36.94,12.92 -75.41,22.3 -114.47,29.85 l -29.51,4.77 c -9.93,1.7 -19.37,2.16 -29.11,3.34 -18.54,2.51 -40.99,2.83 -61.76,4.09 l -28.98,-0.09 c -10.06,0.2 -20.07,-0.41 -30.09,-0.97 -20.09,-0.63 -40.02,-2.91 -59.96,-5 -39.69,-5.35 -79.14,-12.51 -117.38,-23.34 -76.49,-21.41 -149.22,-52.87 -214.17,-92.92 -8.27,-4.78 -16.25,-9.93 -24.04,-15.3 -7.82,-5.33 -15.79,-10.39 -23.42,-15.86 -15.01,-11.24 -30.26,-21.98 -44.27,-33.96 -28.78,-23.07 -54.86,-48.16 -79.4,-73.44 -48.38,-51.25 -88.51,-105.41 -119.28,-159.22 -30.92,-53.74 -53.39,-106.46 -69.43,-154.51 -16.25,-48.05 -25.62,-91.53 -31.92,-127.54 -1.5,-9.03 -2.91,-17.58 -4.24,-25.63 -0.95,-8.06 -1.84,-15.63 -2.66,-22.66 -1.7,-14.06 -3.01,-26.12 -3.39,-36.08 -1.23,-19.79 -1.89,-30.35 -1.89,-30.35 l -11.12,0.28" /><path
         id="path36"
         style="fill:#393536;fill-opacity:1;fill-rule:nonzero;stroke:none"
         d="m 3424.14,3899.86 c 0,0 0.12,-10.58 0.35,-30.41 0.34,-9.87 -0.06,-22.19 -0.73,-36.77 -0.32,-7.28 -0.67,-15.11 -1.03,-23.46 -0.75,-8.3 -1.54,-17.11 -2.38,-26.43 -0.74,-9.34 -1.74,-19.16 -3.36,-29.38 -1.52,-10.23 -2.81,-21.02 -4.72,-32.16 -2.2,-11.11 -4.49,-22.66 -6.87,-34.64 -2.46,-11.98 -5.9,-24.18 -8.98,-36.92 -13.43,-50.63 -33.24,-106.81 -62.01,-165.03 -28.62,-58.26 -67.13,-117.91 -115.02,-175.5 -24.21,-28.53 -50.55,-56.82 -79.98,-83.11 -14.32,-13.61 -29.96,-26.01 -45.45,-38.94 -7.87,-6.32 -16.11,-12.23 -24.21,-18.4 -8.08,-6.23 -16.37,-12.24 -24.97,-17.88 -67.62,-46.86 -144.6,-85.82 -227.43,-112.64 -41.34,-13.69 -84.25,-23.54 -127.7,-31.34 -21.83,-3.31 -43.72,-6.75 -65.83,-8.46 -11.03,-1.11 -22.07,-2.25 -33.17,-2.55 l -34.4,-1.52 c -21.47,0.23 -41.37,-0.64 -64.88,1.04 -23.04,0.81 -45.05,3.21 -67.17,5.35 -44.08,5.6 -87.97,13.22 -130.61,24.83 -85.4,22.6 -166.39,58.15 -237.41,104.14 -35.23,23.33 -68.9,47.99 -98.76,75.64 -15.36,13.33 -29.49,27.65 -43.55,41.64 -7.18,6.84 -13.38,14.58 -20.04,21.75 -6.45,7.37 -13.22,14.35 -19.16,21.98 -49.37,59.41 -88.28,121.54 -116.24,182.24 -28.22,60.6 -46.42,119.11 -57.51,171.57 -2.47,13.21 -5.3,25.84 -7.17,38.2 -1.77,12.34 -3.48,24.23 -5.12,35.67 -1.3,11.45 -1.86,22.54 -2.75,33.03 -0.97,10.48 -1.35,20.51 -1.49,30.05 -0.2,9.49 -0.38,18.47 -0.56,26.92 0.31,8.45 0.6,16.36 0.87,23.73 0.47,14.69 1.08,27.11 2.45,37.18 2.25,20.04 3.46,30.72 3.46,30.72 h 11.12 c 0,0 1.74,-10.45 4.99,-30.04 1.42,-9.75 3.73,-21.71 6.58,-35.66 1.42,-6.96 2.93,-14.43 4.55,-22.4 1.91,-7.89 3.93,-16.28 6.07,-25.13 8.84,-35.23 20.75,-77.5 39.32,-123.7 18.38,-46.22 42.45,-96.61 73.93,-147.97 31.43,-51.37 71.16,-103.04 118.05,-152.47 23.89,-24.3 48.97,-48.68 76.64,-71.18 13.51,-11.65 28.18,-22.11 42.38,-33.44 7.24,-5.48 14.84,-10.54 22.29,-15.88 7.42,-5.4 15.03,-10.57 22.93,-15.38 61.55,-40.93 130.27,-75.8 204.19,-101.43 36.94,-12.92 75.41,-22.3 114.47,-29.85 l 29.5,-4.77 c 9.93,-1.7 19.38,-2.16 29.11,-3.34 18.55,-2.51 41,-2.83 61.77,-4.09 l 28.98,0.09 c 10.06,-0.2 20.07,0.41 30.09,0.97 20.09,0.63 40.02,2.91 59.96,5 39.69,5.35 79.14,12.51 117.38,23.34 76.48,21.42 149.22,52.87 214.17,92.92 8.27,4.78 16.25,9.93 24.04,15.31 7.82,5.32 15.79,10.38 23.41,15.85 15.02,11.24 30.27,21.98 44.28,33.96 28.78,23.07 54.86,48.17 79.4,73.44 48.37,51.25 88.51,105.42 119.28,159.22 30.92,53.74 53.38,106.46 69.43,154.51 16.25,48.05 25.62,91.53 31.92,127.54 1.49,9.03 2.91,17.58 4.23,25.63 0.95,8.06 1.84,15.63 2.67,22.66 1.7,14.06 3,26.12 3.39,36.08 1.23,19.79 1.89,30.35 1.89,30.35 l 11.12,-0.28" /><path
         id="path38"
         style="fill:#393536;fill-opacity:1;fill-rule:nonzero;stroke:none"
         d="m 2643.02,3119.02 c 0,0 -10.57,-0.12 -30.4,-0.34 -9.87,-0.35 -22.19,0.06 -36.77,0.73 -7.29,0.32 -15.12,0.66 -23.47,1.02 -8.29,0.75 -17.11,1.55 -26.42,2.39 -9.34,0.73 -19.16,1.73 -29.38,3.36 -10.24,1.52 -21.03,2.8 -32.17,4.71 -11.1,2.21 -22.65,4.5 -34.64,6.87 -11.98,2.47 -24.17,5.91 -36.92,8.99 -50.63,13.42 -106.81,33.23 -165.02,62.01 -58.27,28.62 -117.91,67.12 -175.51,115.01 -28.53,24.22 -56.82,50.55 -83.1,79.99 -13.62,14.31 -26.02,29.95 -38.95,45.45 -6.31,7.86 -12.22,16.1 -18.4,24.21 -6.23,8.07 -12.23,16.37 -17.87,24.97 -46.86,67.62 -85.83,144.6 -112.64,227.43 -13.7,41.34 -23.55,84.24 -31.34,127.7 -3.32,21.82 -6.75,43.71 -8.47,65.82 -1.1,11.03 -2.24,22.08 -2.55,33.17 l -1.52,34.41 c 0.24,21.47 -0.64,41.37 1.04,64.88 0.82,23.04 3.22,45.05 5.35,67.17 5.61,44.08 13.23,87.96 24.84,130.61 22.6,85.4 58.15,166.39 104.13,237.4 23.34,35.24 48,68.9 75.64,98.77 13.33,15.36 27.65,29.48 41.64,43.55 6.85,7.18 14.58,13.38 21.75,20.03 7.37,6.45 14.35,13.22 21.98,19.16 59.41,49.37 121.55,88.29 182.24,116.24 60.6,28.22 119.12,46.42 171.58,57.52 13.21,2.46 25.83,5.3 38.19,7.17 12.34,1.76 24.24,3.47 35.67,5.11 11.46,1.31 22.55,1.86 33.03,2.75 10.48,0.98 20.52,1.36 30.05,1.5 9.49,0.19 18.47,0.37 26.92,0.55 8.45,-0.31 16.37,-0.59 23.73,-0.86 14.69,-0.48 27.11,-1.08 37.19,-2.46 20.03,-2.25 30.71,-3.45 30.71,-3.45 v -11.13 c 0,0 -10.44,-1.73 -30.03,-4.99 -9.76,-1.42 -21.71,-3.73 -35.67,-6.58 -6.95,-1.41 -14.43,-2.93 -22.4,-4.55 -7.89,-1.9 -16.27,-3.93 -25.13,-6.06 -35.23,-8.85 -77.49,-20.76 -123.7,-39.33 -46.22,-18.37 -96.61,-42.45 -147.97,-73.92 -51.36,-31.43 -103.04,-71.16 -152.47,-118.06 -24.3,-23.89 -48.68,-48.97 -71.18,-76.64 -11.64,-13.5 -22.1,-28.18 -33.44,-42.37 -5.47,-7.25 -10.54,-14.85 -15.88,-22.3 -5.39,-7.41 -10.57,-15.02 -15.38,-22.92 -40.93,-61.55 -75.79,-130.28 -101.43,-204.19 -12.92,-36.95 -22.3,-75.42 -29.84,-114.47 l -4.78,-29.51 c -1.69,-9.93 -2.16,-19.37 -3.33,-29.11 -2.52,-18.55 -2.84,-41 -4.09,-61.77 l 0.08,-28.98 c -0.2,-10.05 0.42,-20.07 0.98,-30.09 0.62,-20.09 2.9,-40.02 4.99,-59.96 5.36,-39.68 12.51,-79.13 23.34,-117.38 21.42,-76.48 52.88,-149.22 92.93,-214.17 4.78,-8.26 9.92,-16.24 15.3,-24.03 5.32,-7.82 10.38,-15.8 15.85,-23.42 11.25,-15.02 21.98,-30.26 33.97,-44.27 23.06,-28.78 48.16,-54.86 73.44,-79.41 51.24,-48.37 105.41,-88.51 159.21,-119.27 53.74,-30.92 106.47,-53.39 154.52,-69.43 48.04,-16.25 91.52,-25.63 127.53,-31.93 9.04,-1.49 17.59,-2.9 25.63,-4.23 8.07,-0.95 15.63,-1.84 22.67,-2.67 14.06,-1.7 26.12,-3 36.08,-3.39 19.79,-1.23 30.35,-1.89 30.35,-1.89 l -0.29,-11.12" /><path
         id="path40"
         style="fill:#393536;fill-opacity:1;fill-rule:nonzero;stroke:none"
         d="m 2643.31,4680.97 c 0,0 10.57,0.13 30.4,0.35 9.87,0.35 22.19,-0.06 36.77,-0.73 7.29,-0.32 15.12,-0.66 23.47,-1.03 8.29,-0.74 17.11,-1.54 26.42,-2.38 9.34,-0.73 19.16,-1.73 29.38,-3.36 10.24,-1.52 21.02,-2.81 32.17,-4.71 11.1,-2.2 22.65,-4.49 34.64,-6.87 11.97,-2.47 24.17,-5.91 36.91,-8.99 50.64,-13.42 106.82,-33.23 165.03,-62 58.26,-28.62 117.91,-67.13 175.5,-115.02 28.54,-24.22 56.83,-50.55 83.11,-79.99 13.62,-14.31 26.02,-29.95 38.95,-45.45 6.31,-7.86 12.22,-16.1 18.4,-24.21 6.23,-8.07 12.23,-16.36 17.87,-24.97 46.86,-67.62 85.82,-144.6 112.64,-227.43 13.7,-41.34 23.55,-84.24 31.34,-127.7 3.31,-21.82 6.75,-43.71 8.47,-65.82 1.1,-11.03 2.24,-22.08 2.55,-33.17 l 1.52,-34.41 c -0.24,-21.47 0.64,-41.36 -1.05,-64.88 -0.81,-23.03 -3.21,-45.05 -5.34,-67.17 -5.61,-44.08 -13.23,-87.96 -24.84,-130.61 -22.6,-85.4 -58.15,-166.39 -104.13,-237.4 -23.34,-35.24 -48,-68.9 -75.64,-98.77 -13.33,-15.36 -27.66,-29.48 -41.64,-43.55 -6.85,-7.18 -14.58,-13.38 -21.76,-20.03 -7.36,-6.45 -14.34,-13.22 -21.97,-19.16 -59.41,-49.37 -121.55,-88.29 -182.25,-116.24 -60.6,-28.22 -119.11,-46.42 -171.57,-57.52 -13.21,-2.46 -25.83,-5.3 -38.19,-7.17 -12.34,-1.77 -24.24,-3.47 -35.67,-5.11 -11.46,-1.31 -22.55,-1.86 -33.04,-2.75 -10.48,-0.98 -20.51,-1.36 -30.04,-1.5 -9.49,-0.19 -18.47,-0.37 -26.92,-0.55 -8.45,0.31 -16.37,0.59 -23.73,0.86 -14.69,0.48 -27.11,1.08 -37.19,2.46 -20.03,2.25 -30.72,3.45 -30.72,3.45 v 11.13 c 0,0 10.45,1.73 30.04,4.99 9.76,1.42 21.71,3.73 35.67,6.58 6.95,1.41 14.43,2.93 22.4,4.55 7.89,1.9 16.27,3.93 25.13,6.06 35.22,8.85 77.49,20.76 123.69,39.33 46.23,18.37 96.62,42.45 147.97,73.92 51.37,31.43 103.05,71.16 152.48,118.06 24.29,23.89 48.68,48.97 71.18,76.64 11.64,13.5 22.1,28.18 33.44,42.37 5.47,7.25 10.54,14.85 15.88,22.3 5.39,7.41 10.56,15.03 15.38,22.92 40.92,61.55 75.79,130.28 101.43,204.19 12.91,36.95 22.29,75.42 29.84,114.47 l 4.78,29.51 c 1.69,9.93 2.15,19.37 3.33,29.11 2.52,18.55 2.83,41 4.09,61.77 l -0.08,28.98 c 0.2,10.05 -0.42,20.07 -0.98,30.09 -0.63,20.09 -2.9,40.02 -5,59.96 -5.35,39.68 -12.5,79.13 -23.33,117.38 -21.42,76.48 -52.88,149.22 -92.93,214.17 -4.78,8.26 -9.93,16.25 -15.3,24.03 -5.32,7.82 -10.38,15.8 -15.85,23.42 -11.25,15.02 -21.99,30.26 -33.97,44.27 -23.06,28.78 -48.16,54.86 -73.44,79.41 -51.24,48.37 -105.41,88.51 -159.21,119.27 -53.74,30.92 -106.47,53.39 -154.52,69.43 -48.04,16.25 -91.52,25.63 -127.53,31.93 -9.04,1.49 -17.59,2.9 -25.63,4.23 -8.07,0.95 -15.63,1.84 -22.67,2.67 -14.06,1.7 -26.12,3 -36.08,3.39 -19.79,1.23 -30.35,1.89 -30.35,1.89 l 0.29,11.11" /><path
         id="path42"
         style="fill:#393536;fill-opacity:1;fill-rule:nonzero;stroke:none"
         d="m 6354.89,3885.94 c 1.16,-99.88 -16.01,-198.24 -47.03,-288.74 -31.28,-90.57 -77.69,-172.41 -131.33,-242.71 -8.07,-10.4 -16.32,-20.47 -24.68,-30.37 31.16,54.3 55.39,111.87 71.24,170.67 13.62,52.49 22.13,105.51 23.63,157.61 0.13,13.02 0.26,25.95 0.39,38.82 l 0.01,1.21 -0.11,4.23 -0.15,2.22 -0.3,4.43 -0.61,8.83 -1.2,17.6 c -0.57,21.9 -6.15,49.99 -10.66,75.7 -19.53,100.56 -66.19,185.42 -120.29,252.76 -6.85,8.35 -13.62,16.62 -20.32,24.79 -7.21,7.72 -14.68,15.05 -22.03,22.28 -7.4,7.19 -14.53,14.42 -21.88,21.24 -7.79,6.33 -15.48,12.58 -23.08,18.76 -7.62,6.1 -14.99,12.27 -22.51,18.01 -7.91,5.25 -15.7,10.43 -23.38,15.54 -7.66,5.06 -15.21,10.04 -22.65,14.95 -7.75,4.4 -15.69,8.24 -23.32,12.25 -30.1,16.82 -60.57,27.65 -88.05,38.03 -28.57,7.88 -54.26,15.76 -78.48,18.78 -11.98,1.9 -23.16,4.15 -33.82,5.29 -10.73,0.58 -20.79,1.11 -30.14,1.61 -9.27,0.48 -17.85,0.92 -25.71,1.32 -7.88,-0.2 -15.05,-0.84 -21.43,-1.17 -25.35,-1.71 -38.87,-2.62 -38.87,-2.62 v -12.01 c 0,0 13.03,-2.26 37.46,-6.48 6.04,-1.03 12.77,-2.18 20.19,-3.45 7.28,-1.9 15.23,-3.99 23.82,-6.24 8.51,-2.23 17.65,-4.62 27.4,-7.17 9.47,-3.37 19.53,-6.96 30.16,-10.74 42.24,-14.88 91.44,-38.71 140.54,-74.89 6.13,-4.52 12.52,-8.83 18.68,-13.65 5.95,-5.1 11.98,-10.27 18.11,-15.52 6.1,-5.2 12.29,-10.47 18.56,-15.82 5.88,-5.79 11.56,-11.95 17.46,-17.98 5.85,-6.05 11.78,-12.18 17.77,-18.38 5.54,-6.62 10.84,-13.59 16.36,-20.45 5.5,-6.83 11.07,-13.74 16.7,-20.73 4.98,-7.45 10.02,-14.99 15.12,-22.61 4.86,-7.73 10.77,-14.86 14.93,-23.23 4.41,-8.18 8.86,-16.44 13.35,-24.78 l 6.79,-12.49 c 2.13,-4.25 3.75,-8.79 5.66,-13.19 3.72,-8.83 7.47,-17.74 11.25,-26.73 4.36,-8.7 6.49,-18.41 9.74,-27.71 3.01,-9.38 6.05,-18.83 9.11,-28.35 2.09,-9.77 4.2,-19.62 6.33,-29.54 2.16,-9.85 4.93,-19.92 5.5,-29.38 2.06,-19.49 5.6,-36.97 5.37,-62.09 l 0.57,-17.63 0.29,-8.85 0.13,-3.86 c -0.01,-0.07 -0.01,-0.27 0,-0.78 l -0.04,-1.02 c -0.5,-10.85 -1.01,-21.76 -1.51,-32.72 -3.44,-43.72 -9.8,-88.13 -21.82,-131.97 -22.77,-87.84 -63.61,-174.63 -122.59,-251.1 -59.33,-75.91 -136.89,-141.12 -226.36,-184.05 -44.58,-21.64 -91.66,-38.34 -139.95,-49.6 -12.1,-2.71 -24.29,-4.96 -36.44,-7.39 -12.2,-1.69 -24.61,-3.85 -36.63,-5.2 l -17.87,-1.74 c -5.92,-0.62 -11.79,-1.27 -18.6,-1.44 l -19.66,-0.87 -8.72,-0.38 -9.35,0.06 c -99.88,-1.16 -198.24,16.01 -288.74,47.03 -90.57,31.28 -172.41,77.69 -242.71,131.33 -10.4,8.06 -20.47,16.32 -30.37,24.68 54.3,-31.16 111.87,-55.39 170.67,-71.24 52.49,-13.62 105.51,-22.13 157.61,-23.63 13.02,-0.13 25.95,-0.26 38.82,-0.39 l 1.2,-0.01 4.24,0.11 2.22,0.15 4.43,0.3 8.83,0.61 17.6,1.2 c 21.9,0.57 49.99,6.15 75.7,10.66 100.56,19.53 185.42,66.19 252.76,120.29 8.35,6.85 16.61,13.62 24.79,20.32 7.72,7.21 15.05,14.68 22.28,22.03 7.19,7.4 14.42,14.53 21.24,21.88 6.33,7.79 12.58,15.48 18.76,23.07 6.1,7.63 12.27,15 18.01,22.52 5.25,7.9 10.43,15.7 15.54,23.38 5.06,7.66 10.04,15.21 14.95,22.65 4.4,7.75 8.24,15.7 12.25,23.32 16.82,30.1 27.65,60.57 38.03,88.05 7.88,28.57 15.76,54.26 18.78,78.48 1.9,11.97 4.15,23.16 5.29,33.82 0.58,10.73 1.11,20.79 1.61,30.14 0.48,9.27 0.92,17.85 1.32,25.71 -0.2,7.88 -0.84,15.05 -1.17,21.43 -1.71,25.35 -2.62,38.87 -2.62,38.87 h -12.01 c 0,0 -2.26,-13.03 -6.48,-37.46 -1.03,-6.04 -2.18,-12.77 -3.45,-20.19 -1.91,-7.28 -3.99,-15.23 -6.24,-23.82 -2.23,-8.51 -4.62,-17.65 -7.17,-27.4 -3.37,-9.47 -6.96,-19.53 -10.74,-30.16 -14.88,-42.25 -38.71,-91.44 -74.89,-140.54 -4.52,-6.13 -8.83,-12.52 -13.65,-18.68 -5.1,-5.95 -10.27,-11.98 -15.52,-18.11 -5.2,-6.1 -10.48,-12.29 -15.82,-18.56 -5.79,-5.88 -11.95,-11.56 -17.98,-17.46 -6.05,-5.85 -12.18,-11.77 -18.38,-17.77 -6.62,-5.54 -13.59,-10.84 -20.45,-16.36 -6.83,-5.5 -13.74,-11.07 -20.73,-16.7 -7.46,-4.98 -14.99,-10.03 -22.61,-15.12 -7.74,-4.86 -14.86,-10.77 -23.23,-14.93 -8.18,-4.41 -16.44,-8.86 -24.78,-13.35 l -12.49,-6.78 c -4.25,-2.14 -8.79,-3.76 -13.19,-5.67 -8.83,-3.72 -17.74,-7.47 -26.73,-11.25 -8.7,-4.36 -18.41,-6.49 -27.71,-9.74 -9.38,-3.01 -18.83,-6.05 -28.35,-9.11 -9.77,-2.09 -19.62,-4.2 -29.54,-6.33 -9.85,-2.16 -19.92,-4.93 -29.38,-5.5 -19.49,-2.06 -36.97,-5.6 -62.09,-5.37 l -17.63,-0.57 -8.85,-0.29 -3.86,-0.13 c -0.06,0 -0.25,0 -0.78,0 l -1.02,0.05 c -10.85,0.49 -21.76,1 -32.72,1.5 -43.72,3.44 -88.13,9.8 -131.97,21.81 -87.84,22.78 -174.63,63.62 -251.1,122.6 -75.91,59.33 -141.12,136.89 -184.05,226.36 -21.64,44.58 -38.34,91.66 -49.6,139.95 -2.71,12.1 -4.96,24.29 -7.39,36.44 -1.69,12.2 -3.85,24.61 -5.2,36.63 l -1.75,17.87 c -0.61,5.92 -1.26,11.8 -1.43,18.6 l -0.87,19.66 -0.38,8.72 0.06,9.35 c -1.16,99.88 16.01,198.24 47.03,288.74 31.27,90.57 77.69,172.41 131.33,242.71 8.06,10.4 16.32,20.47 24.68,30.37 -31.16,-54.3 -55.39,-111.87 -71.24,-170.67 -13.62,-52.49 -22.14,-105.51 -23.63,-157.61 -0.13,-13.02 -0.26,-25.95 -0.39,-38.82 l -0.01,-1.21 0.11,-4.23 0.15,-2.22 0.3,-4.43 0.61,-8.83 1.2,-17.6 c 0.57,-21.9 6.15,-49.99 10.66,-75.7 19.53,-100.56 66.18,-185.42 120.29,-252.76 6.85,-8.35 13.62,-16.62 20.32,-24.79 7.21,-7.72 14.68,-15.05 22.03,-22.28 7.4,-7.18 14.53,-14.42 21.88,-21.23 7.78,-6.34 15.48,-12.59 23.08,-18.77 7.62,-6.1 14.99,-12.27 22.51,-18.01 7.9,-5.25 15.7,-10.43 23.38,-15.54 7.66,-5.06 15.21,-10.04 22.65,-14.95 7.75,-4.4 15.69,-8.24 23.32,-12.25 30.1,-16.82 60.57,-27.65 88.05,-38.03 28.57,-7.88 54.26,-15.76 78.48,-18.78 11.97,-1.9 23.16,-4.15 33.82,-5.3 10.73,-0.57 20.78,-1.1 30.14,-1.6 9.27,-0.48 17.85,-0.92 25.71,-1.32 7.88,0.2 15.05,0.84 21.43,1.17 25.35,1.71 38.86,2.62 38.86,2.62 v 12.01 c 0,0 -13.02,2.26 -37.45,6.48 -6.04,1.03 -12.77,2.18 -20.19,3.45 -7.28,1.9 -15.23,3.99 -23.82,6.24 -8.51,2.23 -17.65,4.62 -27.4,7.17 -9.47,3.37 -19.53,6.96 -30.16,10.74 -42.25,14.88 -91.44,38.71 -140.54,74.89 -6.13,4.52 -12.52,8.83 -18.68,13.65 -5.95,5.1 -11.98,10.27 -18.11,15.52 -6.1,5.2 -12.29,10.48 -18.56,15.82 -5.88,5.78 -11.56,11.95 -17.46,17.98 -5.85,6.05 -11.78,12.18 -17.77,18.38 -5.55,6.62 -10.84,13.59 -16.36,20.45 -5.5,6.83 -11.07,13.74 -16.7,20.73 -4.98,7.46 -10.03,14.99 -15.12,22.61 -4.86,7.74 -10.77,14.86 -14.94,23.23 -4.4,8.18 -8.85,16.44 -13.34,24.78 l -6.79,12.49 c -2.13,4.25 -3.75,8.79 -5.67,13.19 -3.71,8.83 -7.46,17.74 -11.24,26.73 -4.36,8.7 -6.49,18.41 -9.74,27.71 -3.01,9.38 -6.05,18.83 -9.11,28.35 -2.09,9.77 -4.2,19.62 -6.33,29.54 -2.16,9.85 -4.93,19.92 -5.5,29.38 -2.06,19.49 -5.6,36.97 -5.37,62.09 l -0.58,17.63 -0.28,8.85 -0.13,3.86 c 0,0.08 0,0.26 0,0.78 l 0.04,1.02 c 0.5,10.85 1.01,21.76 1.51,32.72 3.44,43.72 9.8,88.13 21.81,131.97 22.78,87.84 63.61,174.63 122.6,251.1 59.33,75.91 136.89,141.12 226.36,184.05 44.58,21.64 91.66,38.34 139.95,49.6 12.09,2.71 24.29,4.96 36.44,7.39 12.2,1.69 24.61,3.85 36.63,5.2 l 17.87,1.74 c 5.92,0.62 11.8,1.27 18.6,1.44 l 19.66,0.87 8.72,0.38 9.35,-0.06 c 99.88,1.16 198.24,-16.01 288.74,-47.03 90.57,-31.28 172.41,-77.69 242.71,-131.33 10.4,-8.06 20.47,-16.32 30.37,-24.68 -54.3,31.16 -111.87,55.39 -170.67,71.24 -52.49,13.62 -105.51,22.14 -157.62,23.63 -13,0.13 -25.95,0.26 -38.81,0.39 l -1.21,0.01 -4.23,-0.11 -2.22,-0.15 -4.43,-0.3 -8.83,-0.61 -17.6,-1.2 c -21.9,-0.57 -49.99,-6.15 -75.7,-10.66 -100.56,-19.53 -185.42,-66.19 -252.76,-120.29 -8.35,-6.85 -16.62,-13.62 -24.79,-20.32 -7.72,-7.21 -15.05,-14.68 -22.28,-22.03 -7.19,-7.4 -14.42,-14.53 -21.24,-21.88 -6.33,-7.79 -12.58,-15.48 -18.76,-23.08 -6.1,-7.62 -12.28,-14.99 -18.01,-22.51 -5.25,-7.9 -10.43,-15.7 -15.54,-23.38 -5.06,-7.66 -10.04,-15.21 -14.95,-22.65 -4.4,-7.75 -8.24,-15.7 -12.25,-23.32 -16.82,-30.1 -27.65,-60.57 -38.03,-88.05 -7.88,-28.57 -15.77,-54.26 -18.78,-78.48 -1.9,-11.97 -4.15,-23.16 -5.29,-33.82 -0.58,-10.73 -1.11,-20.79 -1.61,-30.14 -0.48,-9.27 -0.92,-17.85 -1.32,-25.71 0.19,-7.88 0.84,-15.05 1.17,-21.43 1.71,-25.35 2.62,-38.87 2.62,-38.87 h 12.01 c 0,0 2.25,13.03 6.48,37.46 1.03,6.04 2.18,12.77 3.44,20.19 1.91,7.28 4,15.23 6.25,23.82 2.23,8.51 4.62,17.65 7.17,27.4 3.37,9.47 6.96,19.53 10.74,30.16 14.88,42.25 38.71,91.44 74.89,140.54 4.52,6.13 8.83,12.52 13.65,18.68 5.1,5.95 10.27,11.98 15.52,18.11 5.2,6.1 10.47,12.29 15.82,18.56 5.78,5.88 11.95,11.56 17.98,17.46 6.05,5.85 12.18,11.78 18.38,17.77 6.62,5.55 13.59,10.84 20.45,16.36 6.83,5.5 13.74,11.07 20.73,16.7 7.46,4.98 14.99,10.03 22.61,15.12 7.73,4.86 14.86,10.77 23.23,14.93 8.18,4.41 16.44,8.86 24.78,13.35 l 12.49,6.78 c 4.25,2.14 8.79,3.76 13.19,5.68 8.83,3.71 17.74,7.46 26.72,11.24 8.71,4.36 18.42,6.49 27.72,9.74 9.38,3.01 18.83,6.05 28.35,9.11 9.77,2.09 19.62,4.2 29.54,6.33 9.85,2.16 19.92,4.93 29.38,5.5 19.49,2.06 36.97,5.6 62.09,5.37 l 17.63,0.57 8.85,0.29 3.85,0.13 c 0.04,0 0.23,-0.01 0.79,0 l 1.02,-0.04 c 10.85,-0.5 21.75,-1.01 32.72,-1.51 43.72,-3.44 88.13,-9.8 131.97,-21.81 87.84,-22.78 174.63,-63.62 251.1,-122.6 75.91,-59.33 141.12,-136.89 184.05,-226.36 21.64,-44.58 38.34,-91.65 49.6,-139.95 2.71,-12.1 4.96,-24.29 7.39,-36.44 1.69,-12.2 3.85,-24.61 5.2,-36.63 l 1.74,-17.87 c 0.62,-5.92 1.27,-11.79 1.44,-18.6 l 0.87,-19.66 0.38,-8.72 z m 84.41,20.21 -0.13,19.68 c 0.1,6.34 -0.33,13.56 -0.76,20.76 l -1.25,21.51 c -1.05,14.22 -2.88,27.91 -4.32,41.94 -2.18,13.86 -4.23,27.78 -6.79,41.63 -10.67,55.32 -27.63,109.77 -50.46,161.76 -29,66.86 -68.13,129.23 -114.7,185.18 -8.15,14.36 -16.73,28.78 -26.01,43.23 -22.19,34.31 -47.84,68.41 -76.44,102.12 -29.07,33.29 -61.48,65.74 -97.15,96.59 -35.59,30.98 -75.25,59.24 -117.62,85.19 -42.47,25.76 -87.83,49.28 -136.11,68.23 -96.29,38.11 -202.87,62.37 -312.5,64.92 l -10.28,0.44 -10.93,-0.03 -19.69,-0.13 c -6.33,0.1 -13.55,-0.33 -20.75,-0.76 l -21.51,-1.25 c -14.22,-1.05 -27.91,-2.88 -41.94,-4.32 -13.86,-2.18 -27.78,-4.23 -41.63,-6.79 -55.32,-10.67 -109.77,-27.63 -161.76,-50.46 -66.86,-29 -129.23,-68.13 -185.18,-114.7 -14.36,-8.15 -28.78,-16.73 -43.23,-26.01 -34.31,-22.18 -68.41,-47.84 -102.12,-76.44 -33.29,-29.07 -65.74,-61.48 -96.59,-97.15 -30.99,-35.59 -59.24,-75.25 -85.19,-117.62 -25.76,-42.47 -49.28,-87.83 -68.23,-136.11 -38.11,-96.29 -62.37,-202.87 -64.92,-312.51 l -0.44,-10.27 0.03,-10.93 0.12,-19.68 c -0.09,-6.34 0.34,-13.56 0.77,-20.76 l 1.25,-21.51 c 1.05,-14.22 2.87,-27.91 4.32,-41.94 2.18,-13.86 4.23,-27.78 6.79,-41.63 10.67,-55.32 27.63,-109.77 50.45,-161.76 29.01,-66.86 68.14,-129.23 114.71,-185.18 8.15,-14.36 16.73,-28.78 26.01,-43.23 22.18,-34.31 47.84,-68.41 76.44,-102.12 29.07,-33.29 61.48,-65.74 97.15,-96.59 35.59,-30.99 75.25,-59.24 117.62,-85.19 42.47,-25.76 87.83,-49.28 136.11,-68.23 96.29,-38.1 202.87,-62.37 312.5,-64.92 l 10.28,-0.44 10.93,0.03 19.69,0.13 c 6.33,-0.1 13.55,0.33 20.75,0.76 l 21.51,1.25 c 14.22,1.05 27.91,2.87 41.94,4.32 13.85,2.18 27.78,4.23 41.63,6.79 55.32,10.67 109.77,27.63 161.76,50.46 66.86,29 129.24,68.13 185.18,114.7 14.36,8.15 28.78,16.73 43.23,26.01 34.31,22.18 68.41,47.84 102.12,76.44 33.29,29.07 65.74,61.48 96.59,97.15 30.98,35.59 59.24,75.25 85.19,117.62 25.76,42.47 49.28,87.83 68.23,136.11 38.1,96.29 62.37,202.87 64.92,312.51 l 0.44,10.27 -0.03,10.93" /><path
         id="path44"
         style="fill:#393536;fill-opacity:1;fill-rule:nonzero;stroke:none"
         d="m 4805.37,7030.49 c 8.27,5.84 17.42,12.31 27.39,19.35 10.41,6.5 21.33,13.89 33.1,21.57 23.85,14.95 51.29,30.72 81.68,46.68 15.23,7.93 31.45,15.45 48.01,23.51 17.12,6.94 34.12,15.47 52.54,22.08 36.18,14.73 75.53,26.79 116.27,38.27 41.12,10.34 83.94,19.07 127.89,25.1 44.03,5.37 88.96,8.62 133.97,8.75 45.01,-0.14 89.93,-3.44 133.96,-8.8 43.93,-6.1 86.77,-14.74 127.87,-25.13 40.74,-11.48 80.08,-23.55 116.25,-38.28 18.42,-6.62 35.43,-15.12 52.54,-22.09 16.55,-8.05 32.79,-15.55 48,-23.49 30.4,-15.95 57.83,-31.73 81.7,-46.65 11.78,-7.67 22.68,-15.07 33.1,-21.56 10,-7.07 19.19,-13.56 27.49,-19.42 16.83,-11.56 29.15,-21.83 38.04,-28.34 8.83,-6.6 13.54,-10.12 13.54,-10.12 0,0 -3.75,4.52 -10.77,12.99 -3.57,4.22 -7.97,9.41 -13.15,15.52 -2.61,3.05 -5.42,6.33 -8.41,9.83 -3.19,3.3 -6.58,6.8 -10.17,10.51 -7.21,7.43 -15.19,15.65 -23.88,24.61 -9.05,8.58 -19.19,17.49 -29.91,27.24 -10.72,9.74 -22.98,19.04 -35.52,29.47 -12.55,10.44 -26.93,19.73 -41.37,30.38 -14.7,10.23 -30.75,19.78 -47.11,30.21 -16.96,9.25 -34.17,19.7 -52.78,28.57 -36.75,18.86 -77.38,34.95 -120.15,49.61 -43.09,13.57 -88.55,25.14 -135.54,32.71 -47.02,7.38 -95.35,11.06 -143.73,11.57 -48.39,-0.52 -96.71,-4.25 -143.72,-11.62 -46.98,-7.64 -92.45,-19.12 -135.53,-32.75 -42.77,-14.65 -83.39,-30.75 -120.13,-49.61 -9.34,-4.37 -18.25,-9.29 -26.99,-14.2 -8.73,-4.87 -17.33,-9.66 -25.79,-14.38 -16.36,-10.42 -32.41,-19.95 -47.11,-30.19 -14.44,-10.66 -28.83,-19.92 -41.36,-30.37 -12.55,-10.43 -24.81,-19.73 -35.54,-29.46 -10.72,-9.73 -20.86,-18.65 -29.91,-27.23 -8.72,-8.98 -16.74,-17.22 -23.98,-24.67 -3.59,-3.71 -6.99,-7.21 -10.19,-10.52 -2.97,-3.47 -5.75,-6.73 -8.35,-9.76 -5.16,-6.09 -9.54,-11.27 -13.1,-15.47 -7.04,-8.47 -10.8,-12.99 -10.8,-12.99 0,0 4.71,3.52 13.53,10.12 8.83,6.48 21.36,16.94 38.12,28.45" /><path
         id="path46"
         style="fill:#393536;fill-opacity:1;fill-rule:nonzero;stroke:none"
         d="m 6295.74,5847.61 c -8.27,-5.85 -17.42,-12.31 -27.39,-19.36 -10.41,-6.49 -21.33,-13.88 -33.1,-21.56 -23.85,-14.95 -51.29,-30.72 -81.68,-46.68 -15.23,-7.93 -31.45,-15.45 -48.01,-23.51 -17.12,-6.95 -34.12,-15.47 -52.54,-22.09 -36.18,-14.72 -75.53,-26.79 -116.27,-38.27 -41.12,-10.33 -83.94,-19.07 -127.89,-25.1 -44.03,-5.36 -88.95,-8.61 -133.97,-8.75 -45.01,0.14 -89.93,3.45 -133.95,8.8 -43.94,6.11 -86.78,14.75 -127.88,25.14 -40.74,11.48 -80.08,23.55 -116.25,38.28 -18.42,6.62 -35.43,15.11 -52.54,22.08 -16.55,8.06 -32.79,15.56 -48,23.5 -30.4,15.94 -57.83,31.73 -81.7,46.65 -11.78,7.67 -22.68,15.07 -33.1,21.56 -10,7.06 -19.19,13.55 -27.49,19.42 -16.83,11.55 -29.15,21.82 -38.04,28.33 -8.83,6.61 -13.54,10.13 -13.54,10.13 0,0 3.75,-4.52 10.77,-12.99 3.57,-4.22 7.97,-9.41 13.15,-15.52 2.61,-3.05 5.42,-6.33 8.41,-9.83 3.19,-3.3 6.58,-6.81 10.17,-10.51 7.21,-7.43 15.19,-15.66 23.88,-24.61 9.05,-8.59 19.2,-17.49 29.91,-27.24 10.72,-9.74 22.98,-19.04 35.52,-29.47 12.55,-10.44 26.93,-19.73 41.37,-30.39 14.7,-10.23 30.75,-19.78 47.11,-30.2 16.96,-9.25 34.17,-19.7 52.78,-28.58 36.75,-18.86 77.37,-34.95 120.15,-49.6 43.09,-13.57 88.55,-25.14 135.55,-32.72 47.01,-7.37 95.34,-11.05 143.72,-11.56 48.39,0.52 96.71,4.24 143.72,11.61 46.98,7.65 92.45,19.13 135.53,32.76 42.77,14.65 83.39,30.75 120.13,49.61 9.34,4.37 18.25,9.28 26.99,14.19 8.73,4.87 17.33,9.67 25.79,14.38 16.36,10.42 32.41,19.95 47.11,30.2 14.44,10.65 28.83,19.91 41.36,30.37 12.55,10.43 24.81,19.72 35.54,29.45 10.72,9.74 20.85,18.65 29.91,27.23 8.72,8.98 16.74,17.23 23.98,24.68 3.59,3.7 6.99,7.21 10.18,10.51 2.98,3.48 5.76,6.74 8.36,9.77 5.16,6.09 9.54,11.27 13.1,15.46 7.04,8.48 10.8,13 10.8,13 0,0 -4.71,-3.52 -13.53,-10.12 -8.83,-6.49 -21.36,-16.95 -38.12,-28.45" /><path
         id="path48"
         style="fill:#393536;fill-opacity:1;fill-rule:nonzero;stroke:none"
         d="m 4810.7,6813.61 c 27.34,34.92 56.81,68.99 88.54,100.91 31.93,31.73 66.03,61.16 100.95,88.5 35.38,26.75 71.78,50.93 108.19,72.64 36.93,20.7 73.28,39.98 109.27,55.14 17.7,8.34 35.74,14.37 52.77,21.54 17.4,6 34.19,12.18 50.56,17.32 32.77,10.22 63.32,18.46 90.75,24.78 13.75,2.91 26.7,5.39 38.65,8.17 12.07,2.07 23.16,3.98 33.17,5.7 20.07,3.73 36.05,5.19 46.94,6.86 10.91,1.58 16.73,2.42 16.73,2.42 0,0 -5.84,0.55 -16.8,1.57 -5.51,0.46 -12.29,1.02 -20.27,1.68 -4.01,0.31 -8.31,0.64 -12.9,1 -4.59,0.07 -9.47,0.16 -14.62,0.24 -10.35,0.15 -21.81,0.33 -34.29,0.51 -12.47,-0.32 -25.94,-1.2 -40.41,-1.88 -14.47,-0.7 -29.71,-2.79 -45.96,-4.28 -16.25,-1.49 -32.99,-5.09 -50.73,-7.77 -17.64,-3.16 -35.74,-7.75 -54.67,-11.95 -18.54,-5.46 -38.09,-10.23 -57.53,-17.12 -39.33,-12.65 -79.43,-30 -120.03,-49.88 -40.08,-20.87 -80.4,-44.83 -118.99,-72.71 -38.46,-28.03 -75.23,-59.61 -109.8,-93.45 -33.85,-34.58 -65.38,-71.39 -93.42,-109.84 -27.81,-38.63 -51.84,-78.9 -72.67,-119 -19.88,-40.6 -37.22,-80.7 -49.86,-120.02 -3.51,-9.7 -6.34,-19.47 -9.05,-29.12 -2.73,-9.62 -5.42,-19.09 -8.07,-28.41 -4.2,-18.93 -8.81,-37.02 -11.96,-54.66 -2.67,-17.74 -6.3,-34.47 -7.77,-50.72 -1.5,-16.25 -3.59,-31.49 -4.3,-45.96 -0.7,-14.46 -1.56,-27.93 -1.89,-40.4 0.17,-12.52 0.34,-24.02 0.48,-34.41 0.09,-5.16 0.16,-10.04 0.24,-14.63 0.35,-4.56 0.69,-8.84 1,-12.82 0.66,-7.95 1.21,-14.71 1.67,-20.2 1.01,-10.97 1.55,-16.82 1.55,-16.82 0,0 0.84,5.82 2.41,16.72 1.66,10.83 3.12,27.09 6.84,47.08 1.71,9.97 3.61,21.02 5.68,33.05 2.77,11.95 5.26,24.9 8.15,38.65 6.3,27.44 14.55,57.99 24.76,90.77 5.16,16.37 11.31,33.16 17.32,50.56 7.19,17.02 13.19,35.07 21.53,52.78 15.18,35.99 34.46,72.34 55.16,109.27 21.77,36.39 45.87,72.84 72.68,108.19" /><path
         id="path50"
         style="fill:#393536;fill-opacity:1;fill-rule:nonzero;stroke:none"
         d="m 6509.4,6547.08 c -0.09,5.16 -0.16,10.05 -0.24,14.64 -0.35,4.56 -0.69,8.84 -1,12.81 -0.65,7.95 -1.21,14.72 -1.67,20.2 -1.01,10.98 -1.55,16.83 -1.55,16.83 0,0 -0.84,-5.82 -2.41,-16.73 -1.66,-10.83 -3.12,-27.08 -6.84,-47.07 -1.71,-9.98 -3.61,-21.02 -5.68,-33.05 -2.77,-11.96 -5.26,-24.9 -8.15,-38.66 -6.3,-27.43 -14.55,-57.99 -24.76,-90.76 -5.15,-16.37 -11.31,-33.17 -17.32,-50.57 -7.19,-17.02 -13.19,-35.07 -21.53,-52.77 -15.18,-36 -34.47,-72.35 -55.16,-109.28 -21.77,-36.38 -45.87,-72.84 -72.68,-108.18 -27.34,-34.92 -56.81,-68.99 -88.55,-100.91 -31.92,-31.73 -66.02,-61.16 -100.94,-88.5 -35.38,-26.75 -71.78,-50.93 -108.19,-72.65 -36.93,-20.69 -73.28,-39.97 -109.28,-55.14 -17.7,-8.34 -35.73,-14.36 -52.76,-21.53 -17.4,-6.01 -34.19,-12.19 -50.56,-17.33 -32.77,-10.22 -63.32,-18.46 -90.75,-24.78 -13.75,-2.9 -26.7,-5.38 -38.65,-8.16 -12.07,-2.08 -23.16,-3.98 -33.17,-5.71 -20.08,-3.73 -36.05,-5.18 -46.94,-6.86 -10.91,-1.57 -16.73,-2.41 -16.73,-2.41 0,0 5.84,-0.55 16.8,-1.57 5.51,-0.46 12.29,-1.02 20.27,-1.68 4.01,-0.31 8.31,-0.65 12.9,-1 4.59,-0.08 9.47,-0.16 14.62,-0.24 10.35,-0.16 21.81,-0.33 34.29,-0.52 12.47,0.32 25.94,1.21 40.41,1.89 14.47,0.7 29.71,2.79 45.96,4.27 16.25,1.49 32.98,5.1 50.73,7.77 17.64,3.17 35.73,7.76 54.67,11.96 18.54,5.45 38.09,10.23 57.53,17.11 39.32,12.66 79.43,30 120.03,49.89 40.08,20.87 80.4,44.83 118.98,72.71 38.47,28.03 75.24,59.6 109.82,93.45 33.84,34.58 65.37,71.38 93.4,109.84 27.82,38.63 51.85,78.89 72.68,118.99 19.88,40.6 37.22,80.71 49.86,120.03 3.51,9.69 6.34,19.47 9.05,29.12 2.73,9.62 5.42,19.09 8.07,28.4 4.19,18.94 8.81,37.03 11.96,54.66 2.67,17.75 6.3,34.47 7.77,50.73 1.49,16.24 3.59,31.48 4.3,45.95 0.7,14.47 1.56,27.94 1.89,40.41 -0.17,12.52 -0.34,24.02 -0.48,34.4" /><path
         id="path52"
         style="fill:#393536;fill-opacity:1;fill-rule:nonzero;stroke:none"
         d="m 4959.11,5693.87 c -5.84,8.26 -12.31,17.42 -19.35,27.38 -6.5,10.42 -13.89,21.33 -21.57,33.1 -14.94,23.85 -30.72,51.3 -46.68,81.69 -7.92,15.22 -15.45,31.45 -23.5,48 -6.95,17.12 -15.47,34.13 -22.09,52.54 -14.73,36.19 -26.79,75.53 -38.27,116.27 -10.34,41.12 -19.07,83.95 -25.1,127.9 -5.36,44.02 -8.62,88.95 -8.75,133.96 0.14,45.02 3.44,89.94 8.8,133.96 6.1,43.93 14.75,86.77 25.14,127.87 11.47,40.74 23.55,80.08 38.28,116.26 6.61,18.41 15.11,35.42 22.08,52.54 8.05,16.54 15.55,32.78 23.5,47.99 15.94,30.4 31.72,57.84 46.65,81.7 7.67,11.78 15.07,22.68 21.55,33.1 7.07,10 13.56,19.19 19.42,27.49 11.56,16.83 21.83,29.16 28.34,38.04 6.61,8.83 10.13,13.54 10.13,13.54 0,0 -4.52,-3.74 -13,-10.77 -4.21,-3.57 -9.41,-7.97 -15.52,-13.14 -3.05,-2.62 -6.33,-5.42 -9.83,-8.42 -3.29,-3.19 -6.8,-6.58 -10.5,-10.16 -7.43,-7.21 -15.66,-15.2 -24.61,-23.89 -8.59,-9.05 -17.49,-19.19 -27.25,-29.9 -9.73,-10.73 -19.03,-22.99 -29.47,-35.53 -10.44,-12.54 -19.72,-26.93 -30.38,-41.36 -10.23,-14.71 -19.78,-30.76 -30.2,-47.11 -9.25,-16.97 -19.7,-34.18 -28.58,-52.79 -18.86,-36.75 -34.95,-77.37 -49.6,-120.15 -13.58,-43.09 -25.14,-88.55 -32.72,-135.54 -7.37,-47.02 -11.06,-95.35 -11.57,-143.73 0.52,-48.38 4.25,-96.7 11.62,-143.72 7.65,-46.98 19.12,-92.45 32.76,-135.53 14.64,-42.77 30.74,-83.38 49.61,-120.13 4.37,-9.33 9.28,-18.25 14.19,-26.98 4.87,-8.74 9.67,-17.34 14.38,-25.8 10.42,-16.35 19.95,-32.41 30.19,-47.11 10.66,-14.43 19.92,-28.83 30.38,-41.36 10.42,-12.54 19.72,-24.8 29.45,-35.53 9.74,-10.73 18.65,-20.86 27.23,-29.91 8.98,-8.73 17.23,-16.75 24.68,-23.99 3.7,-3.59 7.21,-6.99 10.51,-10.18 3.48,-2.97 6.74,-5.76 9.77,-8.35 6.09,-5.16 11.26,-9.55 15.46,-13.11 8.48,-7.04 13,-10.79 13,-10.79 0,0 -3.52,4.7 -10.13,13.52 -6.48,8.84 -16.94,21.36 -28.45,38.13" /><path
         id="path54"
         style="fill:#393536;fill-opacity:1;fill-rule:nonzero;stroke:none"
         d="m 6142,7184.23 c 5.84,-8.27 12.31,-17.42 19.35,-27.39 6.49,-10.41 13.88,-21.32 21.57,-33.09 14.95,-23.86 30.72,-51.3 46.68,-81.69 7.92,-15.22 15.44,-31.45 23.5,-48 6.95,-17.13 15.47,-34.13 22.09,-52.54 14.73,-36.19 26.79,-75.53 38.27,-116.28 10.34,-41.12 19.07,-83.94 25.1,-127.89 5.36,-44.02 8.62,-88.95 8.75,-133.96 -0.14,-45.02 -3.44,-89.94 -8.8,-133.96 -6.1,-43.93 -14.74,-86.77 -25.14,-127.87 -11.47,-40.75 -23.55,-80.08 -38.28,-116.26 -6.61,-18.41 -15.11,-35.43 -22.08,-52.54 -8.05,-16.55 -15.55,-32.79 -23.5,-48 -15.94,-30.4 -31.72,-57.83 -46.65,-81.69 -7.67,-11.78 -15.07,-22.69 -21.56,-33.11 -7.06,-10 -13.55,-19.19 -19.41,-27.48 -11.56,-16.84 -21.83,-29.16 -28.34,-38.04 -6.6,-8.84 -10.13,-13.55 -10.13,-13.55 0,0 4.52,3.75 13,10.78 4.21,3.57 9.41,7.97 15.52,13.14 3.05,2.61 6.33,5.42 9.82,8.41 3.3,3.2 6.81,6.59 10.51,10.17 7.43,7.21 15.66,15.19 24.61,23.89 8.59,9.04 17.49,19.19 27.25,29.9 9.73,10.73 19.03,22.98 29.47,35.52 10.44,12.55 19.72,26.93 30.38,41.37 10.23,14.71 19.78,30.75 30.2,47.11 9.25,16.97 19.7,34.17 28.58,52.78 18.86,36.76 34.95,77.38 49.6,120.15 13.58,43.1 25.14,88.55 32.72,135.55 7.37,47.02 11.05,95.34 11.57,143.73 -0.52,48.38 -4.25,96.7 -11.62,143.72 -7.65,46.98 -19.12,92.44 -32.76,135.52 -14.64,42.77 -30.74,83.39 -49.6,120.14 -4.38,9.33 -9.29,18.25 -14.2,26.98 -4.87,8.73 -9.67,17.34 -14.38,25.79 -10.42,16.36 -19.95,32.42 -30.19,47.11 -10.66,14.44 -19.92,28.83 -30.38,41.37 -10.42,12.54 -19.72,24.8 -29.45,35.53 -9.74,10.72 -18.65,20.86 -27.23,29.91 -8.98,8.73 -17.23,16.74 -24.68,23.99 -3.7,3.59 -7.21,6.98 -10.51,10.18 -3.48,2.97 -6.74,5.76 -9.77,8.35 -6.08,5.16 -11.26,9.55 -15.46,13.11 -8.48,7.04 -13,10.79 -13,10.79 0,0 3.52,-4.7 10.13,-13.52 6.48,-8.84 16.94,-21.37 28.45,-38.13" /><path
         id="path56"
         style="fill:#393536;fill-opacity:1;fill-rule:nonzero;stroke:none"
         d="m 5659.27,5493.91 c -9.98,1.72 -21.03,3.62 -33.05,5.68 -11.96,2.77 -24.9,5.27 -38.66,8.16 -27.43,6.29 -57.99,14.54 -90.77,24.75 -16.36,5.16 -33.16,11.32 -50.56,17.32 -17.02,7.2 -35.07,13.19 -52.77,21.54 -36,15.17 -72.35,34.46 -109.28,55.15 -36.38,21.77 -72.84,45.87 -108.18,72.69 -34.92,27.33 -68.99,56.8 -100.92,88.54 -31.73,31.93 -61.16,66.03 -88.5,100.94 -26.75,35.38 -50.93,71.79 -72.64,108.2 -20.69,36.92 -39.97,73.27 -55.14,109.27 -8.34,17.7 -14.36,35.74 -21.53,52.76 -6.01,17.4 -12.19,34.19 -17.33,50.56 -10.22,32.77 -18.46,63.33 -24.78,90.76 -2.91,13.75 -5.38,26.69 -8.16,38.65 -2.08,12.06 -3.99,23.15 -5.71,33.16 -3.73,20.08 -5.18,36.05 -6.86,46.94 -1.58,10.92 -2.42,16.74 -2.42,16.74 0,0 -0.54,-5.85 -1.57,-16.81 -0.45,-5.5 -1.01,-12.29 -1.67,-20.27 -0.31,-4 -0.65,-8.31 -1.01,-12.9 -0.07,-4.59 -0.15,-9.46 -0.24,-14.62 -0.15,-10.35 -0.33,-21.81 -0.51,-34.29 0.32,-12.47 1.2,-25.94 1.88,-40.41 0.7,-14.47 2.79,-29.71 4.28,-45.96 1.49,-16.25 5.09,-32.98 7.77,-50.73 3.16,-17.63 7.76,-35.73 11.95,-54.67 5.46,-18.53 10.24,-38.09 17.12,-57.53 12.65,-39.32 30,-79.42 49.88,-120.03 20.88,-40.07 44.84,-80.39 72.71,-118.98 28.04,-38.46 59.61,-75.24 93.46,-109.81 34.57,-33.84 71.38,-65.38 109.84,-93.41 38.62,-27.81 78.89,-51.85 118.99,-72.67 40.6,-19.89 80.7,-37.22 120.03,-49.87 9.69,-3.51 19.47,-6.34 29.11,-9.04 9.62,-2.74 19.1,-5.43 28.41,-8.07 18.93,-4.2 37.02,-8.82 54.66,-11.97 17.74,-2.67 34.47,-6.3 50.73,-7.77 16.24,-1.49 31.48,-3.59 45.95,-4.3 14.47,-0.69 27.94,-1.56 40.4,-1.89 12.52,0.18 24.02,0.34 34.41,0.49 5.16,0.08 10.04,0.16 14.64,0.23 4.56,0.36 8.83,0.69 12.81,1 7.95,0.66 14.72,1.22 20.2,1.67 10.97,1.02 16.82,1.56 16.82,1.56 0,0 -5.81,0.83 -16.72,2.4 -10.83,1.67 -27.09,3.12 -47.07,6.84" /><path
         id="path58"
         style="fill:#393536;fill-opacity:1;fill-rule:nonzero;stroke:none"
         d="m 5441.84,7384.18 c 9.98,-1.71 21.03,-3.61 33.05,-5.68 11.96,-2.77 24.9,-5.26 38.66,-8.15 27.43,-6.3 57.99,-14.55 90.77,-24.76 16.37,-5.15 33.16,-11.31 50.56,-17.31 17.02,-7.2 35.07,-13.2 52.77,-21.54 36,-15.17 72.35,-34.46 109.28,-55.15 36.38,-21.77 72.84,-45.88 108.18,-72.69 34.92,-27.34 68.99,-56.81 100.92,-88.54 31.73,-31.93 61.16,-66.03 88.5,-100.95 26.75,-35.37 50.93,-71.78 72.64,-108.19 20.69,-36.92 39.97,-73.27 55.14,-109.27 8.34,-17.7 14.36,-35.74 21.53,-52.77 6.01,-17.4 12.19,-34.18 17.33,-50.55 10.22,-32.77 18.46,-63.33 24.78,-90.76 2.91,-13.75 5.38,-26.7 8.16,-38.65 2.08,-12.07 3.99,-23.15 5.71,-33.17 3.73,-20.07 5.18,-36.05 6.86,-46.93 1.58,-10.92 2.42,-16.74 2.42,-16.74 0,0 0.54,5.85 1.57,16.81 0.45,5.5 1.01,12.29 1.68,20.27 0.31,4 0.64,8.3 1,12.89 0.07,4.59 0.15,9.47 0.24,14.62 0.15,10.35 0.32,21.82 0.51,34.29 -0.32,12.47 -1.2,25.94 -1.88,40.41 -0.7,14.47 -2.79,29.72 -4.28,45.96 -1.49,16.26 -5.1,32.99 -7.77,50.74 -3.16,17.63 -7.76,35.73 -11.96,54.66 -5.45,18.54 -10.23,38.1 -17.11,57.54 -12.65,39.32 -30,79.42 -49.88,120.03 -20.88,40.07 -44.84,80.39 -72.71,118.98 -28.04,38.46 -59.61,75.23 -93.45,109.81 -34.59,33.84 -71.39,65.38 -109.84,93.41 -38.63,27.81 -78.9,51.85 -119,72.67 -40.6,19.89 -80.7,37.22 -120.03,49.87 -9.69,3.5 -19.47,6.34 -29.11,9.04 -9.62,2.73 -19.09,5.42 -28.41,8.07 -18.93,4.2 -37.03,8.81 -54.66,11.96 -17.74,2.68 -34.47,6.3 -50.73,7.77 -16.24,1.5 -31.48,3.6 -45.95,4.3 -14.47,0.7 -27.94,1.56 -40.4,1.9 -12.53,-0.18 -24.03,-0.34 -34.41,-0.49 -5.16,-0.08 -10.04,-0.16 -14.64,-0.23 -4.56,-0.36 -8.83,-0.7 -12.81,-1.01 -7.95,-0.65 -14.72,-1.21 -20.2,-1.66 -10.97,-1.02 -16.82,-1.56 -16.82,-1.56 0,0 5.81,-0.84 16.72,-2.41 10.83,-1.66 27.08,-3.12 47.07,-6.84" /><path
         id="path60"
         style="fill:#393536;fill-opacity:1;fill-rule:nonzero;stroke:none"
         d="m 9274.51,6246.93 c -0.31,14.87 -2.24,31.29 -3.92,49.45 -1.31,18.21 -4.68,37.83 -7.72,59.17 -1.33,10.71 -3.73,21.63 -5.96,32.99 -2.39,11.32 -4.27,23.2 -7.32,35.19 -3.07,11.99 -6.25,24.36 -9.51,37.09 -3.2,12.77 -7.71,25.55 -11.68,38.9 -16.93,53.01 -39.81,110.64 -71.23,170.31 -31.26,59.72 -71.69,121.06 -121.77,181.17 -24.76,30.32 -52.87,59.44 -82.65,88.58 -30.52,28.33 -62.79,56.76 -98.43,82.76 -35.02,26.88 -73.6,50.79 -113.86,73.86 -40.67,22.37 -83.59,43.03 -128.83,60.86 -90.54,35.2 -189.99,60.39 -294.93,69.31 -13.11,1.23 -26.27,2.59 -39.54,2.88 -13.57,0.51 -27.19,1.02 -40.88,1.53 -12.94,-0.17 -25.94,-0.34 -38.98,-0.51 -13.4,-0.46 -27.67,-1.62 -41.56,-2.45 -55.03,-4.55 -110.06,-14.29 -164.68,-29.7 -109.12,-30.68 -215.39,-84.3 -308.66,-159.14 -93.37,-74.68 -172.43,-171.56 -229.23,-282.51 -57.08,-110.83 -90.23,-236.6 -94.8,-365.1 l -0.77,-24.11 -0.09,-3.02 0.04,-4.11 0.11,-5.71 0.2,-11.43 c -0.1,-14.49 1.51,-32.44 2.61,-49.13 3.47,-32.8 7.86,-65.4 15.81,-97.55 7.47,-32.19 17.31,-63.95 29.62,-94.8 11.92,-31.02 26.4,-61.1 42.83,-90.12 65.41,-116.32 164.73,-214.54 283.82,-278.74 29.77,-16.04 60.77,-29.77 92.44,-41.81 31.92,-11.37 64.48,-21.05 97.68,-28.14 33.25,-6.61 66.85,-12.12 100.75,-13.97 8.46,-0.81 16.93,-1.06 25.41,-1.24 l 12.72,-0.35 6.36,-0.17 c 2.23,0.01 -0.52,-0.12 5.81,-0.01 l 2.95,0.14 47.19,2.27 c 72.2,6.92 138.38,26.16 200.78,56.33 62.11,30.18 118.63,71.4 166.3,120.95 47.69,49.49 86.75,107.34 113.69,170.32 27.21,62.83 42.96,130.27 46.97,197.92 l 1.2,25.4 0.29,6.34 0.14,3.17 c 0.1,0.54 -0.13,6.85 -0.12,5.54 l -0.61,11.59 c -0.95,15.6 -0.94,29.92 -4.32,49.03 l -4.16,26.94 c -1.55,8.87 -4.1,16.85 -6.14,25.31 -2.19,8.33 -4.26,16.69 -6.63,24.96 l -8.87,24.22 c -24.48,64.19 -62.65,122.62 -111.03,169.98 -48.54,47.21 -106.75,83.63 -169.44,106.37 -62.41,22.88 -130.17,31.75 -194.11,27.23 -6.75,-0.07 -16.25,-1.72 -24.89,-2.99 -8.67,-1.43 -17.72,-2.54 -26,-4.43 -16.07,-4.49 -32.51,-7.64 -47.87,-14.09 -7.76,-2.95 -15.6,-5.68 -23.23,-8.88 l -22.29,-10.88 c -3.67,-1.87 -7.45,-3.55 -11.03,-5.59 l -10.54,-6.44 c -6.98,-4.35 -14.05,-8.56 -20.89,-13.07 -53.39,-37.9 -98.17,-87.67 -125.66,-145.71 l -10.14,-21.74 c -3.07,-7.36 -5.49,-14.98 -8.22,-22.45 -5.89,-14.82 -8.97,-30.45 -12.83,-45.76 -2.2,-7.61 -2.62,-15.55 -3.95,-23.3 -0.99,-7.8 -2.42,-15.55 -2.99,-23.36 l -0.96,-23.43 -0.42,-11.67 c -0.08,-0.56 0.09,-5.83 0.1,-4.82 l 0.17,-2.6 0.32,-5.2 c 0.55,-7.15 0.61,-13.37 1.56,-21.25 l 3.94,-25.09 c 1.25,-8.5 3.81,-15.57 5.71,-23.39 l 3.11,-11.42 4.11,-11.09 c 10.38,-29.75 25.95,-57.29 44.69,-81.84 8.97,-12.64 19.89,-23.59 30.36,-34.76 11.43,-10.23 22.58,-20.69 35.21,-29.24 6.09,-4.55 12.24,-8.99 18.88,-12.67 6.55,-3.8 12.92,-7.89 19.62,-11.34 13.62,-6.5 27.13,-13.09 41.44,-17.58 13.93,-5.52 28.68,-8.21 43.03,-11.75 14.67,-1.98 29.2,-4.81 43.89,-4.81 l 10.96,-0.42 5.47,-0.19 c 0.56,-0.08 5.14,0.13 4.33,0.12 l 2.42,0.15 c 6.54,0.47 12.6,0.67 19.51,1.36 l 23.64,3.81 c 7.51,1.64 14.45,3.77 21.65,5.69 56.67,17.47 105.04,54.67 136.18,101.77 30.81,47.1 45.17,104.27 40.23,156.83 -2.64,28.83 -11.03,55.12 -23.94,78.83 -12.91,23.67 -30.38,44.34 -50.79,60.76 -20.38,16.45 -43.72,28.64 -68.14,35.93 -24.24,7.38 -50.26,9.56 -73.88,7.45 -52.65,-5.08 -96.52,-34.91 -122.02,-74.96 -11.77,-18.7 -19.3,-39.5 -22.66,-60.57 -3.26,-11.06 -5.07,-22.73 -5.07,-34.84 0,-68.15 55.24,-123.39 123.39,-123.39 6.36,0 12.55,0.63 18.65,1.55 7.48,0.72 17.02,2.38 24.18,4.82 19.47,6.56 36.32,18.54 48.53,33.66 0.69,0.85 1.21,1.8 1.87,2.67 18.75,21.65 30.17,49.81 30.17,80.69 0,58.18 -40.31,106.82 -94.48,119.85 37.7,1.84 75.09,-10.38 104.09,-35.53 14.41,-12.44 26.48,-27.84 35.11,-45.08 8.7,-17.18 13.79,-36.62 14.96,-54.88 1.29,-21.26 -1.27,-41.34 -7.11,-61.27 -5.75,-19.78 -14.76,-38.76 -26.78,-55.89 -24.32,-34.11 -60.87,-59.95 -102.07,-71.13 -5.16,-1.12 -10.48,-2.61 -15.49,-3.54 -4.81,-0.56 -9.58,-1.22 -14.36,-1.99 -5.86,-0.39 -12.69,-0.52 -19.01,-0.81 l -2.42,-0.09 c -0.21,0 -0.2,-0.01 -0.33,-0.01 0.06,0.01 0.07,0.02 -0.16,0.04 l -4.21,0.3 -8.41,0.56 c -11.29,0.13 -22.29,2.83 -33.45,4.43 -10.82,3.15 -22.03,5.19 -32.45,9.79 -10.79,3.57 -20.84,8.98 -31.06,14.04 -5.01,2.73 -9.71,6.04 -14.6,8.98 -5,2.82 -9.52,6.36 -14.03,9.93 -9.43,6.6 -17.52,14.86 -26.03,22.65 -7.56,8.73 -15.71,17 -22.11,26.72 -13.6,18.74 -24.76,39.52 -31.81,61.81 l -2.91,8.26 -2.02,8.55 c -1.15,5.59 -3.25,11.6 -3.73,16.83 -0.68,5.31 -1.45,10.6 -2.32,15.89 -0.66,5.86 -0.64,13.55 -0.99,20.25 l -0.2,5.21 -0.1,2.6 c -0.01,0.46 -0.02,0.55 -0.03,0.71 0.02,-0.39 0.06,-0.86 0.09,-0.31 l 0.63,9.17 1.15,18.36 c 0.58,6.11 1.96,12.12 2.86,18.19 1.22,6.01 1.5,12.23 3.48,18.09 3.44,11.81 5.87,23.95 10.88,35.3 2.29,5.73 4.22,11.62 6.74,17.26 l 8.32,16.62 c 1.41,2.76 2.67,5.6 4.19,8.31 l 4.99,7.88 9.88,15.82 11.45,14.8 5.67,7.45 6.42,6.85 12.71,13.81 14.02,12.55 7,6.31 c 2.44,1.97 5.06,3.72 7.58,5.61 l 15.19,11.21 16.21,9.71 8.11,4.88 c 2.76,1.53 5.7,2.71 8.54,4.1 l 17.13,8.11 c 5.88,2.33 11.92,4.25 17.86,6.45 11.72,4.93 24.4,6.79 36.61,10.25 6.05,1.29 11.7,1.7 17.55,2.71 5.93,0.82 10.94,2.15 19,2.18 53.81,2.97 106.46,-5.07 156.43,-24.03 49.73,-18.88 95.7,-48.59 133.8,-86.68 37.93,-38.27 67.36,-85.08 85.88,-135.92 l 6.97,-19.08 5.03,-19.71 c 1.51,-6.52 3.73,-13.27 4.74,-19.6 l 2.82,-18.81 c 2.61,-11.27 2.84,-27.96 3.64,-43.24 l 0.55,-11.59 -0.47,-8.14 -1.15,-21.02 c -6.85,-111.85 -53.9,-222.15 -133.9,-303.05 -39.51,-40.64 -86.25,-74.33 -137.37,-98.85 -50.79,-24.67 -107.68,-39.83 -160.86,-45.32 l -47.18,-2.49 -1.18,-0.07 c -0.37,0.02 -2.02,0.01 -1.86,0.04 l -5.44,0.13 -10.9,0.25 c -7.26,0.11 -14.53,0.27 -21.76,0.96 -29.04,1.37 -57.75,6.07 -86.2,11.5 -28.4,5.92 -56.25,14.1 -83.6,23.64 -27.1,10.21 -53.69,21.78 -79.25,35.38 -102.22,54.46 -188.01,138.43 -244.64,238.03 -14.24,24.84 -26.81,50.6 -37.15,77.18 -5.57,13.14 -9.86,26.74 -14.51,40.19 -2.21,6.76 -3.98,13.65 -6,20.46 -2.07,6.81 -4,13.64 -5.51,20.58 -7.29,27.44 -11.39,55.71 -14.83,83.59 -1,13.8 -2.69,26.23 -2.86,42.24 l -0.37,11.42 -0.19,5.71 c -0.01,0.23 -0.04,1.2 -0.06,1.71 l 0.05,2.57 0.39,21.49 c 2.39,114.53 30.2,226.94 79.83,326.86 49.23,100.18 119.44,187.69 201.63,257.41 82.5,69.52 177.52,120.49 276.08,150.79 49.21,15.21 99.58,25.36 149.26,30.69 12.34,0.99 24.16,2.37 36.83,3.13 13.04,0.48 26.02,0.97 38.96,1.46 12.2,-0.14 24.35,-0.28 36.45,-0.43 12.43,0.18 24.75,-0.71 37.04,-1.44 98.41,-5.03 192.53,-25.51 279.05,-55.83 43.24,-15.38 84.46,-33.55 123.72,-53.44 38.87,-20.59 76.24,-42.15 110.73,-66.18 35.01,-23.3 66.94,-49.12 97.34,-74.98 29.66,-26.67 57.87,-53.45 82.9,-81.59 101.49,-111.71 165.31,-230.13 203.49,-332.08 38.53,-102.3 53,-188.16 60.05,-246.45 1.54,-14.65 2.9,-27.6 4.07,-38.77 0.64,-11.25 1.18,-20.71 1.61,-28.33 0.86,-15.23 1.3,-23.1 1.3,-23.1 0,0 0.05,7.88 0.14,23.14 0.04,7.63 0.1,17.11 0.17,28.37 -0.48,11.28 -1.03,24.34 -1.66,39.13" /><path
         id="path62"
         style="fill:#393536;fill-opacity:1;fill-rule:nonzero;stroke:none"
         d="m 7869.97,4261.43 c 64.06,304.11 333.83,532.43 657,532.43 81.12,0 158.89,-14.38 230.89,-40.75 -95.63,52.38 -205.37,82.2 -322.08,82.2 -364.22,0 -660.5,-290.02 -671,-651.69 l 105.19,77.81" /><path
         id="path64"
         style="fill:#393536;fill-opacity:1;fill-rule:nonzero;stroke:none"
         d="m 8763.7,3538.57 c -64.06,-304.11 -333.83,-532.43 -657,-532.43 -81.12,0 -158.89,14.39 -230.89,40.75 95.63,-52.38 205.37,-82.2 322.09,-82.2 364.21,0 660.49,290.02 671,651.69 l -105.2,-77.81" /><path
         id="path66"
         style="fill:#393536;fill-opacity:1;fill-rule:nonzero;stroke:none"
         d="m 7869.97,4261.43 c 64.06,304.11 333.83,532.43 657,532.43 81.12,0 158.89,-14.38 230.89,-40.75 -95.63,52.38 -205.37,82.2 -322.08,82.2 -364.22,0 -660.5,-290.02 -671,-651.69 l 105.19,77.81" /><path
         id="path68"
         style="fill:#393536;fill-opacity:1;fill-rule:nonzero;stroke:none"
         d="m 8763.7,3538.57 c -64.06,-304.11 -333.83,-532.43 -657,-532.43 -81.12,0 -158.89,14.39 -230.89,40.75 95.63,-52.38 205.37,-82.2 322.09,-82.2 364.21,0 660.49,290.02 671,651.69 l -105.2,-77.81" /><path
         id="path70"
         style="fill:#393536;fill-opacity:1;fill-rule:nonzero;stroke:none"
         d="m 7749.12,3989.58 c -96.58,295.4 22.89,628.01 302.76,789.59 70.26,40.57 144.8,66.99 220.33,80.16 -109,-2.46 -218.95,-31.5 -320.03,-89.85 -315.42,-182.11 -426.99,-581.42 -255.25,-899.89 l 52.19,119.99" /><path
         id="path72"
         style="fill:#393536;fill-opacity:1;fill-rule:nonzero;stroke:none"
         d="m 8884.55,3810.42 c 96.58,-295.4 -22.89,-628.01 -302.76,-789.59 -70.26,-40.57 -144.8,-66.99 -220.33,-80.16 109,2.45 218.95,31.5 320.03,89.86 315.42,182.1 426.99,581.41 255.25,899.88 l -52.19,-119.99" /><path
         id="path74"
         style="fill:#393536;fill-opacity:1;fill-rule:nonzero;stroke:none"
         d="m 7780.39,3693.72 c -231.33,207.53 -294.18,555.32 -132.6,835.19 40.57,70.26 91.91,130.41 150.74,179.58 -93.17,-56.62 -173.87,-136.75 -232.23,-237.83 -182.11,-315.42 -79.08,-717.02 228.89,-906.95 l -14.8,130.01" /><path
         id="path76"
         style="fill:#393536;fill-opacity:1;fill-rule:nonzero;stroke:none"
         d="m 8853.28,4106.28 c 231.34,-207.53 294.18,-555.32 132.6,-835.19 -40.57,-70.26 -91.91,-130.41 -150.74,-179.58 93.17,56.62 173.87,136.75 232.23,237.83 182.11,315.42 79.08,717.02 -228.88,906.95 l 14.79,-130.01" /><path
         id="path78"
         style="fill:#393536;fill-opacity:1;fill-rule:nonzero;stroke:none"
         d="m 7955.4,3453.14 c -304.11,64.06 -532.43,333.82 -532.43,656.99 0,81.13 14.39,158.9 40.75,230.89 -52.37,-95.62 -82.2,-205.36 -82.2,-322.08 0,-364.22 290.02,-660.5 651.7,-671 l -77.82,105.2" /><path
         id="path80"
         style="fill:#393536;fill-opacity:1;fill-rule:nonzero;stroke:none"
         d="m 8678.27,4346.86 c 304.11,-64.05 532.43,-333.82 532.43,-656.99 0,-81.13 -14.39,-158.9 -40.75,-230.89 52.38,95.63 82.2,205.36 82.2,322.08 0,364.22 -290.02,660.5 -651.7,671 l 77.82,-105.2" /><path
         id="path82"
         style="fill:#393536;fill-opacity:1;fill-rule:nonzero;stroke:none"
         d="m 8227.26,3332.29 c -295.4,-96.58 -628.01,22.89 -789.6,302.76 -40.56,70.26 -66.98,144.8 -80.15,220.33 2.45,-109 31.49,-218.95 89.85,-320.03 182.11,-315.42 581.41,-427 899.89,-255.26 l -119.99,52.2" /><path
         id="path84"
         style="fill:#393536;fill-opacity:1;fill-rule:nonzero;stroke:none"
         d="m 8406.42,4467.71 c 295.39,96.58 628.01,-22.89 789.59,-302.76 40.56,-70.26 66.99,-144.8 80.16,-220.33 -2.46,109 -31.5,218.95 -89.86,320.03 -182.11,315.42 -581.41,427 -899.88,255.26 l 119.99,-52.2" /><path
         id="path86"
         style="fill:#393536;fill-opacity:1;fill-rule:nonzero;stroke:none"
         d="m 8523.11,3363.56 c -207.53,-231.34 -555.31,-294.19 -835.18,-132.6 -70.26,40.56 -130.42,91.9 -179.59,150.73 56.63,-93.17 136.75,-173.87 237.83,-232.23 315.43,-182.1 717.02,-79.08 906.96,228.89 l -130.02,-14.79" /><path
         id="path88"
         style="fill:#393536;fill-opacity:1;fill-rule:nonzero;stroke:none"
         d="m 8110.56,4436.44 c 207.53,231.34 555.31,294.19 835.19,132.6 70.25,-40.56 130.41,-91.9 179.58,-150.73 -56.63,93.17 -136.75,173.87 -237.83,232.23 -315.43,182.1 -717.02,79.08 -906.95,-228.89 l 130.01,14.79" /><path
         id="path90"
         style="fill:#393536;fill-opacity:1;fill-rule:nonzero;stroke:none"
         d="M 3600.53,700.531 C 3532.99,583.539 3439.6,490.82 3331.77,425.289 c 68.08,56.902 127.5,126.524 174.45,207.832 187,323.891 114.26,726.379 -153.46,966.559 l -17.12,150.46 c 193.33,-119.23 316.68,-310.58 355.62,-518.95 v 220.06 c -102.6,215.52 -301.44,376.39 -541.04,426.86 l -90.05,121.74 c 265.05,-7.7 496.72,-148.12 631.09,-357.04 v 111.57 c -201.25,260.98 -546.1,364.79 -855.66,263.58 l -138.86,60.41 c 343.29,185.12 767.62,85.69 994.52,-223.76 v 282.43 c 0,101.2 -82.04,183.24 -183.24,183.24 h -360.23 c 83.84,-15.79 166.49,-45.65 244.57,-90.73 116.98,-67.54 209.71,-160.93 275.24,-268.76 -56.9,68.08 -126.52,127.5 -207.83,174.44 -323.9,187 -726.39,114.27 -966.56,-153.45 l -150.46,-17.12 c 119.23,193.33 310.58,316.68 518.95,355.62 h -220.06 c -215.53,-102.6 -376.39,-301.44 -426.86,-541.04 l -121.74,-90.06 c 7.7,265.06 148.11,496.73 357.04,631.1 h -111.57 c -260.99,-201.25 -364.79,-546.11 -263.59,-855.66 l -60.4,-138.86 c -185.12,343.28 -85.69,767.62 223.75,994.52 h -282.42 c -101.2,0 -183.24,-82.04 -183.24,-183.24 v -360.23 c 15.79,83.83 45.65,166.49 90.73,244.57 67.54,116.98 160.93,209.71 268.76,275.24 -68.08,-56.9 -127.5,-126.52 -174.45,-207.83 -187,-323.9 -114.27,-726.39 153.46,-966.56 l 17.12,-150.46 C 1934.9,1091 1811.55,1282.34 1772.61,1490.72 v -220.06 c 102.6,-215.53 301.44,-376.39 541.04,-426.859 l 90.06,-121.75 c -265.06,7.699 -496.73,148.121 -631.1,357.049 V 967.531 c 201.25,-260.992 546.1,-364.801 855.65,-263.59 l 138.87,-60.402 C 2423.84,458.41 1999.51,557.84 1772.61,867.289 V 584.871 c 0,-101.211 82.04,-183.25 183.24,-183.25 h 360.23 c -83.83,15.801 -166.49,45.66 -244.57,90.738 -116.98,67.539 -209.71,160.93 -275.24,268.762 56.9,-68.082 126.52,-127.5 207.83,-174.449 323.89,-187 726.38,-114.274 966.56,153.457 l 150.46,17.121 C 3001.89,563.922 2810.54,440.57 2602.17,401.621 h 220.06 c 215.53,102.598 376.39,301.449 426.86,541.039 l 121.74,90.06 C 3363.13,767.66 3222.72,536 3013.79,401.621 h 111.57 c 260.98,201.258 364.79,546.109 263.59,855.659 l 60.4,138.87 c 185.12,-343.29 85.69,-767.619 -223.75,-994.529 h 282.42 c 101.2,0 183.24,82.039 183.24,183.25 v 360.231 c -15.79,-83.84 -45.65,-166.493 -90.73,-244.571" /><path
         id="path92"
         style="fill:#393536;fill-opacity:1;fill-rule:nonzero;stroke:none"
         d="m 5980.3,1695.09 -474.65,624.16 -443.59,-117.49 400.52,-67.13 517.72,-439.54" /><path
         id="path94"
         style="fill:#393536;fill-opacity:1;fill-rule:nonzero;stroke:none"
         d="m 5068.47,1026.82 474.65,-624.168 443.59,117.489 -400.51,67.14 -517.73,439.539" /><path
         id="path96"
         style="fill:#393536;fill-opacity:1;fill-rule:nonzero;stroke:none"
         d="m 5752.15,1878.28 -723.14,303.22 -325.42,-323.55 380.43,142.12 668.13,-121.79" /><path
         id="path98"
         style="fill:#393536;fill-opacity:1;fill-rule:nonzero;stroke:none"
         d="M 5296.62,843.629 6019.76,540.41 6345.18,863.949 5964.75,721.84 5296.62,843.629" /><path
         id="path100"
         style="fill:#393536;fill-opacity:1;fill-rule:nonzero;stroke:none"
         d="m 5462.97,1922.85 -777.86,-98.97 -120.05,-442.91 258.4,313.29 639.51,228.59" /><path
         id="path102"
         style="fill:#393536;fill-opacity:1;fill-rule:nonzero;stroke:none"
         d="m 6225.31,1027.64 -639.51,-228.581 777.87,98.961 120.04,442.91 -258.4,-313.29" /><path
         id="path104"
         style="fill:#393536;fill-opacity:1;fill-rule:nonzero;stroke:none"
         d="m 5190.25,1816.86 -624.17,-474.64 117.49,-443.599 67.14,400.519 439.54,517.72" /><path
         id="path106"
         style="fill:#393536;fill-opacity:1;fill-rule:nonzero;stroke:none"
         d="m 5858.52,905.039 624.17,474.651 -117.49,443.59 -67.14,-400.52 -439.54,-517.721" /><path
         id="path108"
         style="fill:#393536;fill-opacity:1;fill-rule:nonzero;stroke:none"
         d="M 5007.06,1588.72 4703.84,865.582 5027.38,540.16 4885.27,920.59 5007.06,1588.72" /><path
         id="path110"
         style="fill:#393536;fill-opacity:1;fill-rule:nonzero;stroke:none"
         d="m 6041.71,1133.19 303.22,723.14 -323.55,325.42 142.12,-380.43 -121.79,-668.13" /><path
         id="path112"
         style="fill:#393536;fill-opacity:1;fill-rule:nonzero;stroke:none"
         d="m 4962.49,1299.54 98.97,-777.868 442.91,-120.051 -313.29,258.41 -228.59,639.509" /><path
         id="path114"
         style="fill:#393536;fill-opacity:1;fill-rule:nonzero;stroke:none"
         d="m 6086.28,1422.36 -98.97,777.87 -442.91,120.05 313.29,-258.4 228.59,-639.52" /><path
         id="path116"
         style="fill:#393536;fill-opacity:1;fill-rule:nonzero;stroke:none"
         d="m 8837.01,1803.81 c 0,0 -443.53,544.36 -863.13,491.14 -275.48,-34.93 -219.33,-340.24 95.82,-226.38 315.15,113.87 767.31,-264.76 767.31,-264.76" /><path
         id="path118"
         style="fill:#393536;fill-opacity:1;fill-rule:nonzero;stroke:none"
         d="m 7982.87,2264.43 c 0,0 -136.16,-19.94 -147.51,-117.77 -11.35,-97.83 147.51,117.77 147.51,117.77" /><path
         id="path120"
         style="fill:#393536;fill-opacity:1;fill-rule:nonzero;stroke:none"
         d="m 7796.66,918.09 c 0,0 443.53,-544.348 863.13,-491.141 275.48,34.942 219.33,340.25 -95.82,226.383 C 8248.82,539.461 7796.66,918.09 7796.66,918.09" /><path
         id="path122"
         style="fill:#393536;fill-opacity:1;fill-rule:nonzero;stroke:none"
         d="m 8650.8,457.48 c 0,0 136.16,19.942 147.51,117.758 C 8809.66,673.07 8650.8,457.48 8650.8,457.48" /><path
         id="path124"
         style="fill:#393536;fill-opacity:1;fill-rule:nonzero;stroke:none"
         d="m 8837.01,1803.81 c 0,0 -443.53,544.36 -863.13,491.14 -275.48,-34.93 -219.33,-340.24 95.82,-226.38 315.15,113.87 767.31,-264.76 767.31,-264.76" /><path
         id="path126"
         style="fill:#393536;fill-opacity:1;fill-rule:nonzero;stroke:none"
         d="m 7982.87,2264.43 c 0,0 -136.16,-19.94 -147.51,-117.77 -11.35,-97.83 147.51,117.77 147.51,117.77" /><path
         id="path128"
         style="fill:#393536;fill-opacity:1;fill-rule:nonzero;stroke:none"
         d="m 7796.66,918.09 c 0,0 443.53,-544.348 863.13,-491.141 275.48,34.942 219.33,340.25 -95.82,226.383 C 8248.82,539.461 7796.66,918.09 7796.66,918.09" /><path
         id="path130"
         style="fill:#393536;fill-opacity:1;fill-rule:nonzero;stroke:none"
         d="m 8650.8,457.48 c 0,0 136.16,19.942 147.51,117.758 C 8809.66,673.07 8650.8,457.48 8650.8,457.48" /><path
         id="path132"
         style="fill:#393536;fill-opacity:1;fill-rule:nonzero;stroke:none"
         d="m 8371.51,2041.92 c 0,0 -698.54,71.29 -957.62,-263.04 -170.09,-219.49 85.5,-395.67 227.83,-92.32 142.33,303.36 729.79,355.36 729.79,355.36" /><path
         id="path134"
         style="fill:#393536;fill-opacity:1;fill-rule:nonzero;stroke:none"
         d="m 7441.83,1763.66 c 0,0 -82.18,-110.38 -21.03,-187.58 61.15,-77.2 21.03,187.58 21.03,187.58" /><path
         id="path136"
         style="fill:#393536;fill-opacity:1;fill-rule:nonzero;stroke:none"
         d="m 8262.16,679.98 c 0,0 698.54,-71.289 957.62,263.04 170.09,219.5 -85.5,395.68 -227.83,92.32 C 8849.62,731.98 8262.16,679.98 8262.16,679.98" /><path
         id="path138"
         style="fill:#393536;fill-opacity:1;fill-rule:nonzero;stroke:none"
         d="m 9191.84,958.25 c 0,0 82.18,110.38 21.03,187.58 -61.15,77.19 -21.03,-187.58 -21.03,-187.58" /><path
         id="path140"
         style="fill:#393536;fill-opacity:1;fill-rule:nonzero;stroke:none"
         d="m 7873.98,1881.13 c 0,0 -544.36,-443.53 -491.14,-863.14 34.93,-275.47 340.24,-219.318 226.37,95.83 -113.86,315.14 264.77,767.31 264.77,767.31" /><path
         id="path142"
         style="fill:#393536;fill-opacity:1;fill-rule:nonzero;stroke:none"
         d="m 7413.36,1026.99 c 0,0 19.94,-136.17 117.77,-147.51 97.82,-11.351 -117.77,147.51 -117.77,147.51" /><path
         id="path144"
         style="fill:#393536;fill-opacity:1;fill-rule:nonzero;stroke:none"
         d="m 8759.7,840.77 c 0,0 544.35,443.53 491.14,863.14 -34.94,275.48 -340.25,219.33 -226.38,-95.82 C 9138.32,1292.94 8759.7,840.77 8759.7,840.77" /><path
         id="path146"
         style="fill:#393536;fill-opacity:1;fill-rule:nonzero;stroke:none"
         d="m 9220.31,1694.92 c 0,0 -19.94,136.16 -117.77,147.51 -97.82,11.35 117.77,-147.51 117.77,-147.51" /><path
         id="path148"
         style="fill:#393536;fill-opacity:1;fill-rule:nonzero;stroke:none"
         d="m 7635.86,1415.62 c 0,0 -71.29,-698.538 263.05,-957.608 219.49,-170.09 395.67,85.5 92.31,227.828 -303.36,142.32 -355.36,729.78 -355.36,729.78" /><path
         id="path150"
         style="fill:#393536;fill-opacity:1;fill-rule:nonzero;stroke:none"
         d="m 7914.13,485.949 c 0,0 110.38,-82.179 187.58,-21.027 77.2,61.148 -187.58,21.027 -187.58,21.027" /><path
         id="path152"
         style="fill:#393536;fill-opacity:1;fill-rule:nonzero;stroke:none"
         d="m 8997.81,1306.28 c 0,0 71.29,698.54 -263.04,957.62 -219.5,170.09 -395.68,-85.5 -92.32,-227.83 303.36,-142.33 355.36,-729.79 355.36,-729.79" /><path
         id="path154"
         style="fill:#393536;fill-opacity:1;fill-rule:nonzero;stroke:none"
         d="m 8719.54,2235.96 c 0,0 -110.38,82.18 -187.58,21.03 -77.2,-61.15 187.58,-21.03 187.58,-21.03" /></g></g></svg>